<svg xmlns="http://www.w3.org/2000/svg" viewBox="0 0 203.43 251.5"><defs><style>.cls-1,.cls-2{fill:#fff;stroke:#fff;stroke-miterlimit:10;}.cls-1{stroke-width:1.5px;}.cls-2{stroke-width:0.3px;}</style></defs><g id="Layer_2" data-name="Layer 2"><g id="Layer_2-2" data-name="Layer 2"><path class="cls-1" d="M133.82,233.28c.06-.73.13-1.45.18-2.18.16-2.13.31-4.25.45-6.38a1.84,1.84,0,0,1,1.41-1.82c.63-.18,1.24-.39,1.87-.57.81-.23,1.23,0,1.49.79q.74,2.3,1.45,4.61c.66,2.1,1.32,4.19,2,6.29.2.64.17.75-.47,1a7.53,7.53,0,0,1-1.28.39c-.65.14-.73.08-.93-.55l-2.43-7.76a10.18,10.18,0,0,0-.67-1.72c0,.53-.09,1.07-.12,1.6-.17,3.07-.36,6.14-.51,9.2a.94.94,0,0,1-.69.95c-.41.14-.81.26-1.22.38a1,1,0,0,1-1.22-.45c-2-2.67-4-5.31-6.09-8a1.61,1.61,0,0,0-.49-.48c.06.21.11.42.18.63.89,2.86,1.8,5.72,2.7,8.59,0,.15.09.3.14.45.12.45.1.58-.31.75a8.44,8.44,0,0,1-1.59.52c-.55.12-.64,0-.82-.53q-1-3.3-2.08-6.6l-1.26-4c0-.15-.1-.3-.14-.45a1,1,0,0,1,.64-1.29c.83-.29,1.66-.56,2.51-.77a1.76,1.76,0,0,1,1.92.79c1.62,2.06,3.26,4.11,4.89,6.17l.38.46Z"/><path class="cls-1" d="M79.74,229.91c-.62,2.89-1.23,5.78-1.85,8.67-.17.83-.3.92-1.14.78a8.17,8.17,0,0,1-1-.22c-.59-.19-.67-.34-.54-.95.22-1.05.45-2.1.68-3.15l1.71-7.95c.21-1,.55-1.19,1.52-1,.46.1.92.21,1.38.29a1.87,1.87,0,0,1,1.55,1.41c.84,2.79,1.69,5.57,2.53,8.36l.23.78c.32-1.5.59-2.84.88-4.17s.6-2.85.92-4.27c.12-.59.23-.68.82-.62a8.26,8.26,0,0,1,1.38.29c.45.14.52.32.41.82q-1,4.68-2,9.34c-.14.68-.28,1.36-.45,2s-.49,1-1.2.85a16.8,16.8,0,0,1-1.71-.37,1.42,1.42,0,0,1-.9-.76,4.26,4.26,0,0,1-.26-.62l-2.64-8.54c-.1-.33-.17-.68-.26-1Z"/><path class="cls-1" d="M68.8,237a8.52,8.52,0,0,1-4.78-1.9,4.26,4.26,0,0,1-1.38-4.8c.3-1,.7-2,1.07-3,.58-1.6,1.17-3.19,1.76-4.79.26-.73.32-.77,1.08-.55a8.54,8.54,0,0,1,1.38.53c.49.24.53.38.34.91-.53,1.48-1.08,3-1.61,4.42-.35.95-.7,1.89-1,2.84a2.72,2.72,0,0,0-.14,1.84,3.12,3.12,0,0,0,.61,1.1,3.34,3.34,0,0,0,2.75,1,2.23,2.23,0,0,0,1.76-1.1,6.75,6.75,0,0,0,.55-1.15c.84-2.26,1.67-4.54,2.5-6.81.26-.7.38-.79,1.08-.59a8.43,8.43,0,0,1,1.37.53c.5.24.54.37.35.91-.62,1.71-1.25,3.41-1.87,5.11-.29.78-.56,1.56-.86,2.33A5.29,5.29,0,0,1,72,236.17,5,5,0,0,1,68.8,237Z"/><path class="cls-1" d="M125,239.06l0-.06c-2.08-3.64-4.17-7.28-6.23-10.92a.85.85,0,0,0-.93-.5l-2.26.35a1,1,0,0,0-.91,1c-.55,3-1.14,5.94-1.7,8.91-.22,1.13-.43,2.25-.63,3.37-.14.76,0,.93.81.85.33,0,.67-.1,1-.16.87-.17.94-.26,1.08-1.11s.26-1.49.39-2.27l5.21-.86c.44.79.87,1.53,1.25,2.29a.75.75,0,0,0,.86.47c.53-.08,1.07-.14,1.59-.25C125.3,240,125.37,239.8,125,239.06Zm-9.08-2.82c.27-1.9.63-3.72,1-5.57,1,1.59,1.85,3.23,2.79,5Z"/><path class="cls-1" d="M101.33,241.37c-1.15-4-2.31-7.91-3.45-11.87a1,1,0,0,0-1-.82c-.65-.05-1.3-.08-1.94-.15a1.17,1.17,0,0,0-1.33.85c-1.61,3.64-3.27,7.27-4.91,10.91-.09.2-.18.41-.25.62-.14.45,0,.64.41.72a8.18,8.18,0,0,0,1.4.12c.79,0,.84,0,1.15-.75s.61-1.43.93-2.17l3.59.23,1.69.15c.23.84.49,1.65.67,2.47a.85.85,0,0,0,.84.72c.43,0,.85.08,1.28.1C101.49,242.56,101.63,242.4,101.33,241.37Zm-8.11-4.73c.74-1.73,1.47-3.44,2.21-5.15h.12L97,236.83A15.19,15.19,0,0,1,93.22,236.64Z"/><path class="cls-1" d="M106.19,242.45a7.33,7.33,0,0,1-2.7-.48c-1-.37-1.16-.65-1.18-1.7a1.22,1.22,0,0,1,0-.27c.06-.92.38-1,1-.58a5.28,5.28,0,0,0,3.56.7,2.73,2.73,0,0,0,1.1-.45,1.35,1.35,0,0,0,0-2.15,5,5,0,0,0-1.09-.64c-.53-.25-1.09-.43-1.61-.67a9.92,9.92,0,0,1-1.37-.72,3.66,3.66,0,0,1,.46-6.35,6.73,6.73,0,0,1,5.42-.1,1,1,0,0,1,.72,1c0,.29,0,.59,0,.88,0,.59-.23.7-.77.48s-.91-.39-1.38-.53a3.37,3.37,0,0,0-2-.06,1.34,1.34,0,0,0-1.07,1.08,1.25,1.25,0,0,0,.62,1.32,7.46,7.46,0,0,0,1.19.62c.47.21,1,.37,1.43.58a12.12,12.12,0,0,1,1.14.57,3.81,3.81,0,0,1,.25,6.39A6.47,6.47,0,0,1,106.19,242.45Z"/><path class="cls-1" d="M107.55,16.46V9.94c0-.79.11-.9.88-.93h.13c1,0,1.08.09,1.08,1.05v8.47a4.87,4.87,0,0,1,0,.54.77.77,0,0,1-.77.78,10,10,0,0,1-1.34,0,1.08,1.08,0,0,1-.84-.49,4.89,4.89,0,0,1-.42-.69q-1.71-3.21-3.4-6.42c0-.05-.08-.09-.18-.22,0,.27,0,.46,0,.65q0,3.2,0,6.39c0,.71-.09.8-.81.84h-.4c-.76,0-.84-.11-.84-.87V10.22c0-.12,0-.23,0-.34,0-.53.24-.78.78-.82a14.63,14.63,0,0,1,1.48,0,1.44,1.44,0,0,1,1.23.91l2.41,4.5c.27.52.52,1,.78,1.56C107.36,16.16,107.43,16.26,107.55,16.46Z"/><path class="cls-1" d="M186.92,174.55a8.46,8.46,0,0,0-4.23-1.76,3.9,3.9,0,0,0-4.19,2.05,9,9,0,0,0-.93,2.22,4.39,4.39,0,0,0,1.74,4.93,8.21,8.21,0,0,0,4.33,1.67,3.69,3.69,0,0,0,3.23-1.17,6.87,6.87,0,0,0,1.81-4.24A4.56,4.56,0,0,0,186.92,174.55Zm-1,6a2.21,2.21,0,0,1-1.81.75,6.91,6.91,0,0,1-3.91-1.61,2.3,2.3,0,0,1-.74-2.49,2.5,2.5,0,0,1,1.83-2,3,3,0,0,1,1.07,0,7.48,7.48,0,0,1,3,1.19A2.71,2.71,0,0,1,185.92,180.57Z"/><path class="cls-1" d="M49.74,12.07A3.93,3.93,0,0,0,46.5,9a9,9,0,0,0-2.14-.13,4.59,4.59,0,0,0-4.5,3.81,17.16,17.16,0,0,0-.24,1.82c.07.63.1,1.22.2,1.79A4,4,0,0,0,43,19.83a7.18,7.18,0,0,0,2.73.14,4.55,4.55,0,0,0,4.12-3.84A8.33,8.33,0,0,0,49.74,12.07ZM47.4,16.18a2.74,2.74,0,0,1-4,1.69,2,2,0,0,1-1-1.26c-.18-.69-.27-1.4-.38-2a16.77,16.77,0,0,1,.25-1.84,2.74,2.74,0,0,1,4-1.76,2.3,2.3,0,0,1,1.14,1.51A6.89,6.89,0,0,1,47.4,16.18Z"/><path class="cls-1" d="M182.61,11.47A3.75,3.75,0,0,0,180,9.12a7.17,7.17,0,0,0-2.6-.24,4.63,4.63,0,0,0-4.5,4c-.11.57-.14,1.16-.2,1.73a8.63,8.63,0,0,0,.46,2.72,3.84,3.84,0,0,0,2.66,2.46,6.94,6.94,0,0,0,3.59.08,4.25,4.25,0,0,0,3.13-2.6A7.85,7.85,0,0,0,182.61,11.47Zm-2.15,4.8a2.75,2.75,0,0,1-4.09,1.52,2.24,2.24,0,0,1-1-1.4,7.21,7.21,0,0,1,0-3.66,2.71,2.71,0,0,1,4-1.73,2.47,2.47,0,0,1,1.27,1.88c.1.5.12,1,.19,1.63A15.45,15.45,0,0,1,180.46,16.27Z"/><path class="cls-1" d="M72.87,13.34a4.4,4.4,0,0,0-3.39-4,19.62,19.62,0,0,0-5-.23c-.42,0-.57.21-.63.65a4.64,4.64,0,0,0,0,.53v4.17c0,1.5,0,3,0,4.5,0,.69.19.92.79.92,1.32,0,2.65,0,4-.1a4.4,4.4,0,0,0,4.15-3.53A7.92,7.92,0,0,0,72.87,13.34ZM70.35,16a2.61,2.61,0,0,1-2.42,2,17.72,17.72,0,0,1-1.79,0V10.81A16.65,16.65,0,0,1,68.3,11a2.55,2.55,0,0,1,2.06,1.91A5.61,5.61,0,0,1,70.35,16Z"/><path class="cls-1" d="M193.18,157.43c-2.91-.54-5.82-1.05-8.72-1.61-.82-.16-1,.17-1.14.82-.17,1-.36,1.89-.51,2.85a5.15,5.15,0,0,0,.28,2.9c.8,1.84,3.72,2.42,4.9.5a3.39,3.39,0,0,1,.21-.28l.14.27a2.37,2.37,0,0,0,2.25,1.43,2.24,2.24,0,0,0,2.17-1.21,6.28,6.28,0,0,0,.62-1.55c.23-1,.39-2,.57-3C194.1,157.75,194,157.58,193.18,157.43Zm-5.91,3.38a1.37,1.37,0,0,1-1.68.87,1.29,1.29,0,0,1-1.09-1.46c0-.66.19-1.32.3-2.06l2.91.54A7.61,7.61,0,0,1,187.27,160.81Zm4.45.28a1.16,1.16,0,0,1-1.51.86,1.28,1.28,0,0,1-1.08-1.46c.06-.47.16-.92.27-1.48l2.67.49C192,160.06,191.87,160.59,191.72,161.09Z"/><path class="cls-1" d="M120.93,13.05a4.3,4.3,0,0,0-3.64-3.8c-.91-.18-1.86-.19-2.79-.28a.22.22,0,0,0,0,.08c-.58,0-1.17,0-1.75,0s-.8.21-.8.83c0,3,0,6.09,0,9.13,0,.61.2.83.8.83,1.3,0,2.6,0,3.89-.1a4.42,4.42,0,0,0,4.17-3.42A8.2,8.2,0,0,0,120.93,13.05ZM118.47,16a2.57,2.57,0,0,1-2.2,2,15.08,15.08,0,0,1-2,0V10.87a6.19,6.19,0,0,1,2.64.23,2.63,2.63,0,0,1,1.6,1.87A5.58,5.58,0,0,1,118.47,16Z"/><path class="cls-1" d="M30.9,184.77c-.43-.84-.84-1.69-1.33-2.49a11.56,11.56,0,0,0-1.37-1.82,3.8,3.8,0,0,0-2.82-1.23,7.32,7.32,0,0,0-5.24,2.47,4.16,4.16,0,0,0-.92,2.75,5.82,5.82,0,0,0,.63,2.45c.49,1,1,2,1.51,2.92.31.58.57.66,1.15.36q4-2.1,8-4.21C31.14,185.65,31.22,185.38,30.9,184.77Zm-8.59,2.95a6.65,6.65,0,0,1-1-2.35,2.52,2.52,0,0,1,.63-2.12,5.2,5.2,0,0,1,3.33-1.71,2.4,2.4,0,0,1,2.35,1c.41.56.72,1.17,1.11,1.82Z"/><path class="cls-1" d="M171.75,19.05c-.33-.84-.7-1.65-1.05-2.48a3.72,3.72,0,0,0-1.36-1.74l.37-.19a2.87,2.87,0,0,0,1.54-3.33,2.64,2.64,0,0,0-2.47-2.13,42.43,42.43,0,0,0-4.37-.11c-.45,0-.61.22-.65.69,0,.18,0,.36,0,.54v7.33c0,.54,0,1.08,0,1.62s.08.56.53.61a5.43,5.43,0,0,0,1.14,0c.51-.05.6-.17.6-.69,0-1,0-2,0-3,0-.22,0-.44,0-.64,1.26-.13,1.68.08,2.19,1.16.29.62.54,1.27.8,1.92.57,1.38.62,1.41,2.13,1.3C171.88,19.84,172,19.68,171.75,19.05Zm-3.42-5.62a3.23,3.23,0,0,1-1,.29c-.39,0-.79,0-1.25,0V10.81a4.84,4.84,0,0,1,2.11.15,1.16,1.16,0,0,1,.77,1.15A1.26,1.26,0,0,1,168.33,13.43Z"/><path class="cls-1" d="M25.32,15.23H21.39c0,.2-.05.39-.05.58,0,1.08,0,2.16,0,3.23,0,.7-.1.81-.8.85a4.93,4.93,0,0,1-.94,0c-.45-.06-.51-.16-.53-.61a2.44,2.44,0,0,1,0-.27V9.89c0-.78.07-.85.83-.89,1.37-.07,1.45,0,1.45,1.35,0,.74,0,1.48,0,2.22,0,.22,0,.44,0,.69h3.89c0-.21,0-.4,0-.59,0-1,0-1.93,0-2.89,0-.61.1-.7.68-.77h.14c1.36-.07,1.45,0,1.45,1.34,0,2.9,0,5.79,0,8.69,0,.74-.08.82-.84.87h-.2c-1.15,0-1.22-.06-1.22-1.18V15.23Z"/><path class="cls-1" d="M90.46,11.42a2.94,2.94,0,0,0-2.72-2.25,36.21,36.21,0,0,0-3.9-.11c-.52,0-.74.26-.79.81a3.65,3.65,0,0,0,0,.47v8.88c0,.47.09.58.52.63a9,9,0,0,0,1.27,0c.34,0,.5-.21.5-.58,0-.81,0-1.61,0-2.42,0-.22,0-.44,0-.72.28,0,.52,0,.76,0A14.34,14.34,0,0,0,87.59,16,3.55,3.55,0,0,0,90.46,11.42Zm-2.37,1.76a1.52,1.52,0,0,1-1.46,1.18c-.4,0-.8,0-1.2,0a16.69,16.69,0,0,1,0-3.59c.57,0,1.11,0,1.63.11A1.27,1.27,0,0,1,88.13,12,3.4,3.4,0,0,1,88.09,13.18Z"/><path class="cls-1" d="M162.1,12a2.93,2.93,0,0,0-2.58-2.78,18.62,18.62,0,0,0-4.22-.14c-.47,0-.65.27-.69.75,0,.14,0,.27,0,.41V19c0,.13,0,.26,0,.4a.41.41,0,0,0,.39.46,8.07,8.07,0,0,0,1.2,0c.59,0,.69-.16.69-.75,0-1,0-1.92,0-3,.42,0,.75,0,1.08,0a5.45,5.45,0,0,0,2.28-.5A3.45,3.45,0,0,0,162.1,12Zm-3.67,2.31a10.25,10.25,0,0,1-1.51.1V10.84a4.5,4.5,0,0,1,1.76.07,1.38,1.38,0,0,1,.62.38A1.86,1.86,0,0,1,158.43,14.3Z"/><path class="cls-1" d="M94.52,10.9a2.5,2.5,0,0,0,0,.35c0,.67,0,1.34,0,2.08.22,0,.41.05.6.05.79,0,1.57,0,2.36,0,.49,0,.58.1.63.58a3.69,3.69,0,0,1,0,.47c0,.57-.11.66-.69.67H94.52V18c.2,0,.4.05.59.05h2.83c.63,0,.73.11.78.73a1.93,1.93,0,0,1,0,.34c0,.62-.15.73-.78.73H93.17c-.77,0-1-.2-1-1q0-4.44,0-8.88c0-.77.19-1,.94-1,1.62,0,3.23,0,4.85,0,.54,0,.62.08.67.61v.27c0,.83-.07.91-.91.91H95A4.19,4.19,0,0,0,94.52,10.9Z"/><path class="cls-1" d="M125.07,10.88v2.45a5.48,5.48,0,0,0,.57.05c.79,0,1.57,0,2.36,0,.49,0,.58.1.63.58a3.69,3.69,0,0,1,0,.47c0,.57-.11.66-.69.67h-2.86V18a5.87,5.87,0,0,0,.59.05h2.89c.55,0,.66.11.72.66a2.67,2.67,0,0,1,0,.4c0,.63-.15.74-.77.74h-4.78c-.77,0-1-.2-1-1q0-4.44,0-8.88c0-.77.19-1,.94-1,1.62,0,3.23,0,4.85,0,.54,0,.62.08.66.61a1.88,1.88,0,0,1,0,.34c0,.75-.1.84-.86.84h-2.62Z"/><path class="cls-1" d="M77,10.84v2.51l.67,0h2.29c.35,0,.55.14.58.5a3.55,3.55,0,0,1,0,.46c0,.67-.12.76-.81.77H77.65l-.68,0V18c.21,0,.4.05.59.05h2.89c.58,0,.66.1.7.66v.07c0,1,0,1.07-1,1.07H75.82a4,4,0,0,1-.6,0,.59.59,0,0,1-.54-.59c0-.16,0-.32,0-.47V10.14c0-.11,0-.22,0-.33,0-.53.21-.71.75-.76.11,0,.22,0,.33,0,1.5,0,3,0,4.51,0,.78,0,.87.1.87.89v.27c0,.52-.15.62-.67.63H77Z"/><path class="cls-1" d="M17.27,176.62l2.36-.82c-.3-.86-.58-1.68-.86-2.5s-.23-.93.59-1.2c.66-.21.77-.16,1,.47.31.87.61,1.73.93,2.66l2.78-1c-.37-1.07-.73-2.08-1.07-3.1-.1-.28-.36-.61-.06-.87a1.53,1.53,0,0,1,1.31-.4c.15,0,.29.31.36.5.5,1.39,1,2.79,1.46,4.19.42,1.21.4,1.26-.81,1.68L17.44,179a2.43,2.43,0,0,1-.38.13c-.57.17-.83.05-1-.52-.29-.79-.56-1.6-.84-2.41s-.53-1.57-.82-2.34a.49.49,0,0,1,.28-.71l.19-.08c.9-.38,1-.32,1.36.58s.57,1.65.86,2.48C17.11,176.26,17.19,176.42,17.27,176.62Z"/><path class="cls-1" d="M12.4,155.36l2.5-.18c0-.44,0-.85-.06-1.27,0-.58-.09-1.16-.13-1.74,0-.4.07-.51.47-.6l.13,0c1-.13,1.09,0,1.17.93s.12,1.65.19,2.56l2.93-.23c-.06-.9-.12-1.72-.19-2.54,0-.38-.05-.76-.08-1.14a.43.43,0,0,1,.39-.53l.53-.08c.69-.05.81.06.87.76.12,1.57.26,3.13.37,4.69.06.83-.08,1-.93,1.05-2.54.21-5.09.4-7.64.59-.45,0-.89.09-1.34.11s-.79-.17-.84-.73c-.14-1.65-.27-3.3-.39-5,0-.55.07-.66.61-.74h.13c.91-.08,1,0,1.07.9S12.32,154.23,12.4,155.36Z"/><path class="cls-1" d="M137.35,10.84v2.48a4.88,4.88,0,0,0,.52.06h2.29c.64,0,.72.1.75.75v.13c0,.76-.09.85-.85.85h-2.6a8.41,8.41,0,0,0-.05,2.94h3.21a3.73,3.73,0,0,1,.47,0c.37.06.46.25.46.9s-.09.83-.48.88a3.65,3.65,0,0,1-.47,0h-4.37a4.09,4.09,0,0,1-.61,0,.57.57,0,0,1-.55-.57c0-.18,0-.36,0-.54V10.16c0-.11,0-.22,0-.33,0-.58.2-.77.79-.78,1.68,0,3.36,0,5.05,0,.45,0,.52.08.6.54a2.83,2.83,0,0,1,0,.41c0,.73-.13.84-.87.84Z"/><path class="cls-1" d="M179.63,191.66c.28-.19.49-.35.71-.49a3.11,3.11,0,0,0,1.32-1.48,1.79,1.79,0,0,0,.09-1,1,1,0,0,0-1.24-.63,4.86,4.86,0,0,0-1,.51c-.47.3-.91.65-1.38,1a3,3,0,0,1-3.64,0,3.15,3.15,0,0,1-1.25-3.5,5.58,5.58,0,0,1,2.2-3.29,1.52,1.52,0,0,1,2.12.39.3.3,0,0,1-.08.47l-.52.31a3.89,3.89,0,0,0-1.56,1.63,2.46,2.46,0,0,0-.27,1,1.1,1.1,0,0,0,1.44,1,6,6,0,0,0,1.18-.62c.56-.34,1.07-.74,1.65-1.05a2.77,2.77,0,0,1,2.82.06,2.93,2.93,0,0,1,1.44,3.5,5.13,5.13,0,0,1-1.78,2.71c-.59.48-.78.49-1.44.1a4.45,4.45,0,0,1-.51-.33C179.83,191.94,179.78,191.84,179.63,191.66Z"/><path class="cls-1" d="M57.42,11.39c-.23-.11-.43-.21-.63-.29a7.21,7.21,0,0,0-1.34-.43,2.58,2.58,0,0,0-1.17.13,1,1,0,0,0-.35,1.61,3.5,3.5,0,0,0,.93.64c.56.29,1.14.52,1.7.81a2.93,2.93,0,0,1,1.77,2.92,3.1,3.1,0,0,1-2.26,2.95A5.44,5.44,0,0,1,52,19.57a1.49,1.49,0,0,1-.77-2,.3.3,0,0,1,.43-.19,3.35,3.35,0,0,1,.53.28,4,4,0,0,0,2.4.51,2.2,2.2,0,0,0,.87-.3,1.1,1.1,0,0,0,.15-1.74,5.42,5.42,0,0,0-1.08-.67c-.55-.29-1.15-.52-1.68-.84a2.9,2.9,0,0,1-1.45-3.26A2.91,2.91,0,0,1,53.81,9,5.23,5.23,0,0,1,57,9.26a.9.9,0,0,1,.66,1C57.66,10.6,57.8,11,57.42,11.39Z"/><path class="cls-1" d="M145.73,18l.73,0h2.22a1,1,0,0,1,.46,0c.48.26.34.73.33,1.13s-.14.64-.47.69a1.9,1.9,0,0,1-.34,0h-4.17a2.32,2.32,0,0,1-.53,0,.56.56,0,0,1-.5-.55,4.87,4.87,0,0,1,0-.54V9.91c0-.8.08-.88.88-.9a5.33,5.33,0,0,1,.8,0c.51.07.59.17.61.7V18Z"/><path class="cls-1" d="M21.46,166c-.24-1-.45-2-.67-2.9-.14-.61-.07-.73.53-.91h.06c.95-.26,1.07-.18,1.29.75.31,1.29.61,2.58.91,3.86,0,.09.05.18.06.26.09.57,0,.78-.6.93-1,.25-2,.47-2.94.7L14,170.15c-.52.12-.62.08-.8-.42a6.18,6.18,0,0,1-.25-1c-.07-.52,0-.61.52-.74l5-1.18Z"/><path class="cls-1" d="M182.84,167.86l-.83,2.83c-.19.64-.27.68-.9.54l-.33-.08c-.69-.23-.76-.36-.55-1.07.39-1.33.78-2.67,1.18-4,.24-.8.42-.91,1.2-.68l8.76,2.55c.57.17.64.28.52.87a6.61,6.61,0,0,1-.29,1c-.2.48-.39.52-.83.38-2.11-.64-4.24-1.25-6.37-1.86C183.91,168.15,183.42,168,182.84,167.86Z"/><path class="cls-1" d="M37.9,13.41c0,1.17,0,2.33,0,3.5a6.52,6.52,0,0,1-.26,1.58,1.92,1.92,0,0,1-1.19,1.28,3.64,3.64,0,0,1-2.56,0,.7.7,0,0,1-.55-.74c0-.31,0-.63,0-.94s.18-.43.55-.31a3.07,3.07,0,0,0,.83.21.64.64,0,0,0,.78-.57,4.13,4.13,0,0,0,.09-.93c0-2.19,0-4.39,0-6.58,0-.88,0-.94,1-.95a5.3,5.3,0,0,1,.8,0c.43.06.52.18.53.62Z"/><path class="cls-1" d="M32.18,14.45v4.63c0,.69-.08.75-.77.81h-.07c-1.34.08-1.46,0-1.46-1.35V10.08c0-.15,0-.31,0-.47A.5.5,0,0,1,30.4,9a7.23,7.23,0,0,1,1.14,0c.56.05.63.14.63.72C32.18,11.31,32.18,12.88,32.18,14.45Z"/><path class="cls-1" d="M201.67.75H1.93c-.22,0-.45,0-.67,0A4.07,4.07,0,0,0,.75.83v152a109.58,109.58,0,0,0,.66,12.28,90.56,90.56,0,0,0,2.53,13.27,93.8,93.8,0,0,0,22.45,40.08,102.58,102.58,0,0,0,69.23,32c1,.05,1.91.16,2.87.24H105c.94-.08,1.87-.19,2.81-.24A103.63,103.63,0,0,0,157,235a97,97,0,0,0,35.62-38.56,89,89,0,0,0,9.95-38.14,6,6,0,0,1,.11-.72V.79C202.34.77,202,.75,201.67.75ZM200.48,4V152.93a95.24,95.24,0,0,1-.52,10.41A89.93,89.93,0,0,1,186,202.73a96.78,96.78,0,0,1-41,35.61,99.14,99.14,0,0,1-24,7.72,101,101,0,0,1-24,1.69c-22-1.11-41.67-8.32-58.86-22.1A93,93,0,0,1,9.07,186a87.94,87.94,0,0,1-5-18.74,94.41,94.41,0,0,1-1-14.15V2.93H200.42c0,.19.05.36.06.53S200.48,3.82,200.48,4Z"/><path class="cls-1" d="M179.66,24.82c0-.15,0-.3-.06-.44H24.54v.93q0,60.57,0,121.14c0,1.82.06,3.64.16,5.45a68.76,68.76,0,0,0,1.81,12.36,75.24,75.24,0,0,0,24.33,40.18,78.47,78.47,0,0,0,63.36,18.21,74.81,74.81,0,0,0,17.57-4.89c18.59-7.82,32.31-20.79,40.92-39.06a73.92,73.92,0,0,0,7-31.93q0-60.78,0-121.55A2.67,2.67,0,0,0,179.66,24.82ZM26.31,105H101v37.33a10.22,10.22,0,0,1-.94.41,18,18,0,0,1-8.27,1,13.55,13.55,0,0,1-4-1.16,11.17,11.17,0,0,0-1.25-.49,3.13,3.13,0,0,0-2.65.29c-.52.32-1,.67-1.51,1A9,9,0,0,1,80,144.56a4.71,4.71,0,0,1-3.29-.1,14.93,14.93,0,0,1-2.25-1.06,5.17,5.17,0,0,0-4.65-.37c-.32.11-.64.21-.95.34a9.55,9.55,0,0,1-6.26.44c-1.15-.27-2.28-.64-3.41-1a11,11,0,0,0-2.89-.59,4.32,4.32,0,0,0-2.55.71c-.19.12-.38.24-.56.37a7.13,7.13,0,0,1-6.59,1A12.12,12.12,0,0,1,44,143.1c-1.77-1-1.92-1-3.82-.22-.54.22-1.07.46-1.6.7a12,12,0,0,1-6.7,1c-1.8-.24-3.58-.6-5.37-.9l-.23-.1Zm.05,39.16c.87.23,1.72.5,2.6.68a18.34,18.34,0,0,0,7.34.23,10.58,10.58,0,0,0,2-.62,24.31,24.31,0,0,0,2.27-1,2.79,2.79,0,0,1,3,.18c.34.22.69.43,1,.62a8.66,8.66,0,0,0,9.13-.32c2-1.29,2.37-1.37,4.69-.6,1.34.45,2.68.91,4.05,1.23a11.52,11.52,0,0,0,7-.6,13.22,13.22,0,0,1,1.73-.52,3.26,3.26,0,0,1,2.17.26c.73.34,1.45.71,2.18,1.05a7.27,7.27,0,0,0,2.49.76,6.25,6.25,0,0,0,3.9-1c.47-.3.93-.62,1.41-.92s.7-.4,1.05-.59a2.44,2.44,0,0,1,2.5,0,10.68,10.68,0,0,0,3.47,1.24,16.38,16.38,0,0,0,8.93-.68c.54-.22,1.09-.4,1.68-.61v5.47a2,2,0,0,1-.29.15,31,31,0,0,1-7,1.69,8.54,8.54,0,0,1-4.51-.77c-.43-.2-.84-.42-1.27-.61a6.94,6.94,0,0,0-2.19-.61,3.79,3.79,0,0,0-2.45.52c-.66.39-1.29.81-1.94,1.21A7.32,7.32,0,0,1,79,151a6.07,6.07,0,0,1-4-.64,13.48,13.48,0,0,1-1.3-.71,4.53,4.53,0,0,0-3.76-.46,18.55,18.55,0,0,0-1.79.56,11,11,0,0,1-7.58.11c-.72-.23-1.44-.47-2.15-.75a8.22,8.22,0,0,0-3-.57,3,3,0,0,0-1.72.47c-.31.19-.6.4-.9.59a7.78,7.78,0,0,1-8.11.54c-.66-.32-1.31-.68-2-1a2.75,2.75,0,0,0-2.58-.15c-.78.34-1.58.66-2.34,1a11.65,11.65,0,0,1-7.21,1c-1.17-.19-2.34-.43-3.5-.65l-.74-.11Zm.07,6.51c.44.09.81.15,1.17.24a28.82,28.82,0,0,0,4.62.81,10.89,10.89,0,0,0,5.57-1c.73-.35,1.46-.68,2.2-1a3.26,3.26,0,0,1,3.3.35,8.57,8.57,0,0,0,9.74.17c.47-.28.91-.58,1.38-.85a2,2,0,0,1,1.49-.24c1,.25,1.89.53,2.85.78,1.4.36,2.8.78,4.23,1.05a9.33,9.33,0,0,0,5.22-.49c.67-.25,1.35-.48,2-.71a3.16,3.16,0,0,1,2.48.21c.68.34,1.36.69,2.06,1a16.59,16.59,0,0,0,2.23.73,5.22,5.22,0,0,0,3.65-.58,11.43,11.43,0,0,0,2-1.23,4.53,4.53,0,0,1,4.25-.76,8.93,8.93,0,0,1,1.9.67,10.08,10.08,0,0,0,7.33.66c1.41-.35,2.79-.8,4.19-1.2l.68-.22v12s-.07.09-.13.11a38.12,38.12,0,0,1-5.51,1.7,13.3,13.3,0,0,1-8.64-1.15,10.36,10.36,0,0,0-1.42-.59,3,3,0,0,0-2.65.35c-.57.35-1.11.75-1.67,1.12a6.14,6.14,0,0,1-4,1.19,8,8,0,0,1-2.93-.93c-.34-.17-.67-.36-1-.55a4.85,4.85,0,0,0-4.52-.2A15.5,15.5,0,0,1,66,163a11.32,11.32,0,0,1-5.45-.32c-1.16-.32-2.31-.72-3.47-1.06a7.75,7.75,0,0,0-1.5-.34,3.91,3.91,0,0,0-3,.79,7.22,7.22,0,0,1-3.06,1.48,8.5,8.5,0,0,1-6.08-1c-.41-.24-.8-.5-1.22-.72a2.85,2.85,0,0,0-2.53-.17c-.68.29-1.37.55-2,.88a12.6,12.6,0,0,1-7.85,1.15l-1.59-.25A72.58,72.58,0,0,1,26.43,150.69Zm2,13.37c.4.05.68.12,1,.13,1.52.06,3,.12,4.57.16a6.33,6.33,0,0,0,2.73-.62c.65-.3,1.29-.62,2-.91.45-.2.91-.37,1.37-.54a2.27,2.27,0,0,1,2,.19c.67.39,1.36.77,2.07,1.1a8.35,8.35,0,0,0,7,.21A8.5,8.5,0,0,0,53,162.67a3.2,3.2,0,0,1,3-.64c.69.19,1.38.39,2.06.61a26.24,26.24,0,0,0,5,1.21,8.83,8.83,0,0,0,4.23-.52c.59-.22,1.17-.46,1.77-.64a4.59,4.59,0,0,1,4.17.51,8.06,8.06,0,0,0,3,1.22,5.78,5.78,0,0,0,4.22-.68c.64-.37,1.24-.8,1.87-1.19a11.19,11.19,0,0,1,1.17-.65,2.06,2.06,0,0,1,1.75,0c1.11.44,2.21.9,3.34,1.23a15.87,15.87,0,0,0,10.29-.59l2.16-.86v3c-2.6.68-5.07,1.86-7.79,2a14.1,14.1,0,0,1-6-.56,21.52,21.52,0,0,1-2-.89,3.36,3.36,0,0,0-3.45.15c-.43.25-.84.52-1.25.79-.21.13-.42.26-.62.41a5.34,5.34,0,0,1-4.27,1,6.78,6.78,0,0,1-2.46-.84c-.59-.32-1.19-.63-1.81-.89a3.7,3.7,0,0,0-2.56-.14,15.62,15.62,0,0,0-1.79.59,10.22,10.22,0,0,1-7,.31c-1.16-.34-2.31-.71-3.47-1-.63-.17-1.27-.28-1.91-.4a3.14,3.14,0,0,0-2.65.66,8.58,8.58,0,0,1-2.92,1.48,7.6,7.6,0,0,1-5.92-.67l-1.59-.88a3.22,3.22,0,0,0-3-.15c-.74.33-1.48.65-2.2,1a7.66,7.66,0,0,1-2.68.82,30.27,30.27,0,0,1-4.28.18Zm1.12,4,1.55.08a11.44,11.44,0,0,0,3.87-.32c.77-.23,1.5-.59,2.25-.89s1.48-.63,2.23-.9a2,2,0,0,1,1.74.23c.45.27.87.56,1.33.79a8.64,8.64,0,0,0,9.13-.23L53,166a2.29,2.29,0,0,1,1.82-.27c.9.24,1.8.52,2.69.82a23,23,0,0,0,3.89,1,11.14,11.14,0,0,0,6.19-.8,8.18,8.18,0,0,1,1.26-.44,4.43,4.43,0,0,1,3.48.63,9.21,9.21,0,0,0,3.57,1.31,5.44,5.44,0,0,0,3.58-.6c.39-.22.76-.48,1.13-.73s.7-.48,1-.73a3.4,3.4,0,0,1,3.63-.22,14.08,14.08,0,0,0,2.17.88,16.26,16.26,0,0,0,9.22-.21c1.24-.37,2.43-.91,3.64-1.37.23-.08.44-.19.74-.32v13.18a5.29,5.29,0,0,1-.93.15,28.09,28.09,0,0,1-5.5-.24,11.46,11.46,0,0,1-2.93-1,9.4,9.4,0,0,0-1-.43,3.36,3.36,0,0,0-3,.23c-.56.33-1.1.7-1.63,1.08a6,6,0,0,1-7.17.16l-.34-.22a4.63,4.63,0,0,0-4.23-.59,10.54,10.54,0,0,0-1.34.45,10.25,10.25,0,0,1-7.35.32c-1-.3-1.92-.64-2.88-.92-.75-.22-1.52-.39-2.29-.56a2.4,2.4,0,0,0-1.8.32c-.61.37-1.24.72-1.87,1.06a8.84,8.84,0,0,1-3.64,1.12,7.58,7.58,0,0,1-4-.86c-.58-.3-1.17-.57-1.73-.9a3.2,3.2,0,0,0-3.26-.09c-.6.31-1.23.55-1.84.83a10.67,10.67,0,0,1-5.76.95c-.87-.09-1.75-.08-2.7-.12A72.19,72.19,0,0,1,29.54,168.08Zm4.57,11.47,1.39.19a12.91,12.91,0,0,0,5.39-.33c.6-.19,1.17-.47,1.74-.71.74-.31,1.47-.66,2.23-.95a2.37,2.37,0,0,1,2,.15c.54.28,1.08.56,1.61.85a8.55,8.55,0,0,0,8.72-.15,8.27,8.27,0,0,0,1-.61,3.43,3.43,0,0,1,3-.53c.82.22,1.62.52,2.42.81a18.6,18.6,0,0,0,4.09,1,10.18,10.18,0,0,0,4.89-.62l1.69-.65a3.44,3.44,0,0,1,2.81.07c.67.3,1.34.63,2,.95a9,9,0,0,0,2.6.88,5.91,5.91,0,0,0,4.16-1c.5-.33,1-.67,1.53-1a10,10,0,0,1,1.28-.6,2.68,2.68,0,0,1,2.15.08c.23.1.45.2.67.32a11.34,11.34,0,0,0,6.36,1.3,9.24,9.24,0,0,0,3.19-.53v3.23a14.35,14.35,0,0,1-4,.4,13.39,13.39,0,0,1-6.06-1.57,3.2,3.2,0,0,0-3,0,9.93,9.93,0,0,0-1.22.71c-.45.29-.89.61-1.34.89a5.57,5.57,0,0,1-5.22.43c-.5-.19-1-.45-1.46-.69l-1.13-.59a4,4,0,0,0-3.26-.23c-.49.17-1,.32-1.45.53a9.92,9.92,0,0,1-7,.4c-1.09-.33-2.16-.74-3.25-1.06a15.82,15.82,0,0,0-2.22-.51,3.28,3.28,0,0,0-2.42.61,14.92,14.92,0,0,1-1.36.87,7.78,7.78,0,0,1-7.06.32,12.73,12.73,0,0,1-1.88-1,3.74,3.74,0,0,0-3.54-.19c-.44.17-.85.41-1.27.62a9.77,9.77,0,0,1-5.29,1.25A15.71,15.71,0,0,0,36,183Zm2.22,4.06h2.81a6.2,6.2,0,0,0,2.53-.62l2.07-1c.33-.15.67-.27,1-.4a2.79,2.79,0,0,1,2.58.26c.34.21.69.42,1,.61a8.43,8.43,0,0,0,9.39-.46,4.32,4.32,0,0,1,4.12-.58c1.38.46,2.75.95,4.16,1.33a10.35,10.35,0,0,0,7-.46c.43-.18.88-.32,1.32-.49a3.34,3.34,0,0,1,2.92.19c.53.29,1.06.57,1.61.82a16.69,16.69,0,0,0,1.81.73A5.41,5.41,0,0,0,85,183.2c.59-.3,1.16-.67,1.74-1s1-.63,1.58-.88a2.89,2.89,0,0,1,2.71.1,13.09,13.09,0,0,0,8.08,1.36,17.08,17.08,0,0,0,1.93-.49v14.45l-.77-.34c-1.24-.62-2.48-1.25-3.74-1.84a3.35,3.35,0,0,0-1.82-.38,3,3,0,0,0-1.5.53l-.75.56a6.26,6.26,0,0,1-6.37.72c-.76-.32-1.47-.77-2.21-1.15a13.59,13.59,0,0,0-1.38-.68,4.17,4.17,0,0,0-3.34,0c-.57.25-1.14.51-1.7.79a9.28,9.28,0,0,1-7.44.49c-.87-.3-1.73-.61-2.6-.9a3.74,3.74,0,0,0-3.63.54,7.41,7.41,0,0,1-3.26,1.35,5.35,5.35,0,0,1-4-.71c-.51-.33-1-.65-1.56-.93a10.33,10.33,0,0,0-1.59-.72,3.43,3.43,0,0,0-2.68.17c-.4.19-.8.4-1.2.61a7.55,7.55,0,0,1-3.15.85c-.36,0-.71.08-1.13.13A74.66,74.66,0,0,1,36.33,183.61Zm12.72,16.27c1.11-.5,2.14-1,3.18-1.45a2.21,2.21,0,0,1,2.23.3c.81.56,1.64,1.09,2.47,1.61a4.84,4.84,0,0,0,2.82.74c.34,0,.68,0,1,0a4.47,4.47,0,0,0,2.38-.61c.43-.24.84-.52,1.27-.76a10.06,10.06,0,0,1,1.33-.63,2.9,2.9,0,0,1,2.53.2,10.68,10.68,0,0,0,3.49,1.18,3.07,3.07,0,0,0,.53.07c1.23-.06,2.46-.08,3.69-.19a7.08,7.08,0,0,0,3.3-1.24,4.9,4.9,0,0,1,1.92-.78,2.1,2.1,0,0,1,1.82.46,10.06,10.06,0,0,0,2.43,1.53,8.06,8.06,0,0,0,7.79-.4c.51-.3,1-.61,1.49-.93a1.24,1.24,0,0,1,1.08-.2,19.45,19.45,0,0,1,1.91.64c1.09.47,2.16,1,3.3,1.52v8.28l-.47-.3a4,4,0,0,0-4.48-.08c-2.94,2.12-6.08,2.16-9.31.78-.56-.23-1.07-.58-1.62-.81a11.41,11.41,0,0,0-2.09-.7,4.56,4.56,0,0,0-3,.47,28.56,28.56,0,0,1-3.52,1.49,11.11,11.11,0,0,1-6.63,0c-.81-.25-1.61-.54-2.43-.77A7.78,7.78,0,0,0,64,209a3,3,0,0,0-2,1A75.47,75.47,0,0,1,49.05,199.88Zm18.42,13.21-5.16-2.88a5.2,5.2,0,0,1,3-.58,26.7,26.7,0,0,1,2.94.69,16.08,16.08,0,0,0,5.75.87,13.88,13.88,0,0,0,5.11-1.31l1.51-.74A3.6,3.6,0,0,1,83.6,209a12,12,0,0,1,2.18,1,8.87,8.87,0,0,0,5,1.27,9.81,9.81,0,0,0,3.18-.52,7.28,7.28,0,0,0,2-1,4.07,4.07,0,0,1,4.37-.43c.21.09.4.2.63.31v3.22c-.24-.14-.43-.23-.61-.35a2.46,2.46,0,0,0-3,.06c-.4.29-.81.56-1.22.83a5.64,5.64,0,0,1-2.86.84,7.66,7.66,0,0,1-5.43-1.54c-1.85-1.43-3.74-1.31-5.7-.15a10.17,10.17,0,0,1-7.2,1.18,11.06,11.06,0,0,1-1.84-.62,13.35,13.35,0,0,0-3.09-.9A2.58,2.58,0,0,0,67.47,213.09ZM101,221.18c-1.61.49-11.83-.71-17-2-5.5-1.37-13.89-4.47-16-5.94a3.46,3.46,0,0,1,2.48-.23,23.62,23.62,0,0,1,2.42.8,11.19,11.19,0,0,0,4.52.86A11.55,11.55,0,0,0,82.93,213a3.74,3.74,0,0,1,3.61-.17,17.12,17.12,0,0,1,1.86,1.06,6.35,6.35,0,0,0,2.4,1c2.44.28,4.79.18,6.8-1.53a2.74,2.74,0,0,1,3.44,0Zm0-20.73c-.24-.15-.4-.24-.55-.35a14,14,0,0,0-4.3-2,2.4,2.4,0,0,0-2,.3l-.56.38a7.43,7.43,0,0,1-8.16.73,8.35,8.35,0,0,1-1.91-1.24,3,3,0,0,0-3.14-.51,7,7,0,0,0-1.44.73,7.41,7.41,0,0,1-3.53,1.2,23.6,23.6,0,0,1-3.76,0,9.78,9.78,0,0,1-2.3-.69c-.53-.18-1-.43-1.55-.64a2.94,2.94,0,0,0-2.48.08c-.68.33-1.35.71-2,1.1a6.17,6.17,0,0,1-6.77-.22c-.41-.29-.8-.59-1.19-.89a3.26,3.26,0,0,0-3.48-.45,23.19,23.19,0,0,0-2.3,1.24,7.24,7.24,0,0,0-.75.54l-3.31-3.44.55,0a19,19,0,0,0,2.27-.2,9.43,9.43,0,0,0,1.68-.62,2.75,2.75,0,0,0,.41-.24,3,3,0,0,1,3.48-.09c.94.55,1.92,1,2.87,1.61a3.79,3.79,0,0,0,1.58.49,7.69,7.69,0,0,0,5.53-1.43,3.43,3.43,0,0,1,3.25-.52c.92.29,1.83.61,2.74.91a8.62,8.62,0,0,0,4.89.42,34.53,34.53,0,0,0,3.54-1.24c.44-.17.86-.4,1.28-.61a2.35,2.35,0,0,1,2.07-.07c.6.25,1.19.52,1.78.81s1.44.72,2.15,1.11a6.33,6.33,0,0,0,4.25.53,7.07,7.07,0,0,0,3.21-1.46,4.52,4.52,0,0,1,1-.63,2.56,2.56,0,0,1,2-.06c1,.38,2,.77,3,1.18.62.25,1.22.54,1.85.81,0,.17,0,.32,0,.48ZM101,102.7H26.32V26.19c.5-.14,73.17-.2,74.61-.07C101.07,26.6,101.1,102,101,102.7Zm2.28-76.58H177.9V61.91c-.33-.19-.6-.33-.86-.49-2.7-1.69-5.38-3.41-8.09-5.07a57.2,57.2,0,0,1-4.86-3.26,22.74,22.74,0,0,0-2-1.35,6.21,6.21,0,0,0-5.56-.49c-1,.38-2,.87-3,1.35-3.33,1.61-6.65,3.24-10,4.86-.7.35-1.41.69-2.11,1a.67.67,0,0,1-.63,0,17.93,17.93,0,0,1-5.83-3.9,12.24,12.24,0,0,0-1-.92,4.45,4.45,0,0,0-2.13-1.1c-1.91-.36-3.83-.73-5.75-1s-3.59-.53-5.39-.77a12.36,12.36,0,0,0-3.49-.09,2.84,2.84,0,0,0-2.37,1.66c-1.1,2.78-3.25,4.72-5.23,6.76s-3.91,3.7-5.88,5.54c-.15.13-.31.24-.47.38C103.14,64.53,103.09,27.12,103.23,26.12ZM138,212.38a75.42,75.42,0,0,1-22.53,7.78A71.18,71.18,0,0,1,104,221.29h-.76V105h74.75v.75c0,13.43,0,26.87,0,40.3A75,75,0,0,1,138,212.38Zm39.9-138.84V98.63a2.56,2.56,0,0,1-.4-.14,220.36,220.36,0,0,0-22-10.21c-1.64-.67-3.27-1.36-4.9-2-.22-.09-.43-.2-.74-.34.29-.13.48-.23.69-.3l26.47-10.36.5-.2c.27-.1.3-.29.17-.58l-.67.23L149.47,85.14a1.73,1.73,0,0,1-1.46,0c-4.37-1.92-8.76-3.8-13.26-5.37a118,118,0,0,0-21.08-5.35c-3.37-.52-6.75-.89-10.13-1.33l-.31,0a4.35,4.35,0,0,1-.06-.52c0-2,0-4,0-6a.93.93,0,0,1,.37-.8q2.43-2.07,4.82-4.19a.59.59,0,0,1,.83-.08c1.07.66,2.14,1.32,3.19,2a.78.78,0,0,1,.28.49,2.6,2.6,0,0,0,1.6,1.94l.25.11A1.91,1.91,0,0,1,116,67.83l2-.67a8.1,8.1,0,0,1,.47-3.23,5,5,0,0,0,.81-.18c.76-.28,1.1-.08,1.22.71a3.16,3.16,0,0,0-.92,0c-.15,0-.2.4-.34.7a1.44,1.44,0,0,1,2,.63,1.78,1.78,0,0,0,.29.52c.32.37.67.71,1,1.06a2.22,2.22,0,0,0,.41.24,1.25,1.25,0,0,0-.49-1,3.48,3.48,0,0,1-1.15-1.85A5.29,5.29,0,0,0,121,64a1.64,1.64,0,0,0-1.08-.94l-1-.31.42-1.08c-.7-.67-.64-.87.32-1.2a.66.66,0,0,0-.27-.69,3.12,3.12,0,0,1-.75-1.26,6.75,6.75,0,0,0-.34-.65,1.13,1.13,0,0,0-1-.65,2.25,2.25,0,0,1-1.34-.7c-.48-.42-1-.76-1.53-1.13.27-.78.54-1.58.82-2.37a2.53,2.53,0,0,1,2.2-1.64,11,11,0,0,1,3.48.18q4.63.76,9.27,1.58a18.71,18.71,0,0,1,1.83.43,4.22,4.22,0,0,1,1.89,1.13,15.81,15.81,0,0,0,6,3.92A4,4,0,0,1,141.78,60c1,1.36,2.09,2.7,3.18,4a14.46,14.46,0,0,0,1.69,1.63,1.61,1.61,0,0,0,.84.33c-.39-.36-.79-.71-1.17-1.07a25,25,0,0,1-2.84-3.49,9.94,9.94,0,0,0-1.8-2.08c-.05,0-.07-.11-.14-.22l5.53-2.65.48,1.16-2.94.33c-.2.49-.19.6.19.88a3.55,3.55,0,0,0,1.74.64c.17,0,.36-.13.54-.2a3,3,0,0,1,.75-.22c.69,0,.9.22.92,1-.45-.26-.86-.59-1.42-.45-.06.35.18.35.4.39.55.12.6.19.68.84a1.22,1.22,0,0,1-1-.33,5,5,0,0,0-.63-.39c-.11.29-.19.49-.28.71a1.6,1.6,0,0,1-1-.5,2.21,2.21,0,0,1-.58-.64,1.18,1.18,0,0,0-1.54-.62,2.4,2.4,0,0,0,.51,1.19c.22.33.42.68.62,1a2.23,2.23,0,0,0,.24.4.53.53,0,0,0,.81.17l.67-.33a.77.77,0,0,0,.69.88,2.45,2.45,0,0,1,.56.23,3.19,3.19,0,0,0,1.82.38c.37,0,.71,0,.81.51.56-.54,1.05-.31,1.57,0a3.75,3.75,0,0,1,1.78,1.36c.08.13.27.19.56.37a12.26,12.26,0,0,0-.17-1.39,2.74,2.74,0,0,1,.07-1.79,2.91,2.91,0,0,0-.73-3.09,2,2,0,0,0-.75-.55A2.64,2.64,0,0,1,151,57.12c-.33-.66-.62-1.34-.94-2,2-1,4-2.08,6-3a5.73,5.73,0,0,1,5.88.6c2.78,2,5.72,3.72,8.6,5.53,2.25,1.43,4.47,2.91,6.72,4.34a1.29,1.29,0,0,1,.68,1.24C177.92,67.08,177.94,70.31,177.94,73.54Z"/><path class="cls-1" d="M21.08,91c0-.23,0-.45,0-.68a4.46,4.46,0,0,0-2.93-4.13,7.89,7.89,0,0,0-5.54,0,3.74,3.74,0,0,0-2.41,2.61A6.85,6.85,0,0,0,10,91.42a4.54,4.54,0,0,0,3.19,4.24,8.09,8.09,0,0,0,5.1,0,3.66,3.66,0,0,0,2.6-2.75c.16-.62.22-1.27.32-1.91Zm-2.17,1.36a2.47,2.47,0,0,1-1.81,1.16,7.44,7.44,0,0,1-3,0A2.66,2.66,0,0,1,11.87,90a2.17,2.17,0,0,1,1.72-1.71A17.1,17.1,0,0,1,15.4,88a14.47,14.47,0,0,1,1.85.27A2.74,2.74,0,0,1,18.91,92.33Z"/><path class="cls-1" d="M194.83,106.91a4.45,4.45,0,0,0-3.48-3.91,8.36,8.36,0,0,0-4.52,0,3.88,3.88,0,0,0-2.9,3,7.06,7.06,0,0,0,0,3.2,4.38,4.38,0,0,0,3.22,3.46c.74.21,1.54.27,2.3.41a9.62,9.62,0,0,0,2.73-.5,3.89,3.89,0,0,0,2.57-2.87A7.17,7.17,0,0,0,194.83,106.91Zm-2.12,2.5a2.32,2.32,0,0,1-1.5,1.06c-.59.13-1.19.18-1.81.27a17.78,17.78,0,0,1-1.78-.27,2.73,2.73,0,0,1-1.7-4,2.07,2.07,0,0,1,1.28-1,6.71,6.71,0,0,1,4,0A2.73,2.73,0,0,1,192.71,109.41Z"/><path class="cls-1" d="M194.77,61.32a4.48,4.48,0,0,0-3.7-3.85c-.64-.14-1.29-.17-2.06-.27a19.86,19.86,0,0,0-2.33.42,3.8,3.8,0,0,0-2.75,2.86,7.37,7.37,0,0,0-.2,2.47,4.48,4.48,0,0,0,2.84,4.14,7.81,7.81,0,0,0,5.65,0,3.7,3.7,0,0,0,2.4-2.63A6.89,6.89,0,0,0,194.77,61.32Zm-2,2.47A2.24,2.24,0,0,1,191.27,65c-.63.15-1.28.21-1.92.31a15.69,15.69,0,0,1-1.86-.31,2.75,2.75,0,0,1-1.55-4.08,2.19,2.19,0,0,1,1.39-1,7,7,0,0,1,3.72,0A2.73,2.73,0,0,1,192.76,63.79Z"/><path class="cls-1" d="M193.54,73.21h-8.87c-.7,0-.9.19-.9.87,0,1.12,0,2.24,0,3.36a6.09,6.09,0,0,0,.17,1.2,4.3,4.3,0,0,0,3.23,3.42,7.53,7.53,0,0,0,2.8.22c2.72-.3,4.21-1.75,4.46-4.49.12-1.18.08-2.37.09-3.56C194.58,73.4,194.38,73.21,193.54,73.21Zm-1,4.9a2.64,2.64,0,0,1-2,1.68,5.66,5.66,0,0,1-2.86,0,2.63,2.63,0,0,1-2.06-2.16,8.47,8.47,0,0,1-.06-2.08h7.14A6.22,6.22,0,0,1,192.54,78.11Z"/><path class="cls-1" d="M20.93,76.15a9,9,0,0,0-.25-1.86,4.23,4.23,0,0,0-3.25-3.24,8,8,0,0,0-3.13-.16,4.43,4.43,0,0,0-4,3.78,26.49,26.49,0,0,0-.13,4.63c0,.37.21.55.6.6a3.13,3.13,0,0,0,.53,0H20c.77,0,1-.18,1-.94C21,78,21,77.09,20.93,76.15ZM19.1,77.61H12a5.59,5.59,0,0,1,.33-2.87,2.82,2.82,0,0,1,2.26-1.5,6.07,6.07,0,0,1,2.4.1,2.65,2.65,0,0,1,2.13,2.46C19.14,76.39,19.1,77,19.1,77.61Z"/><path class="cls-1" d="M192,29.26c.12-.24.24-.46.34-.68a5.64,5.64,0,0,0,.64-2.52,3.23,3.23,0,0,0-2.8-3.41,5,5,0,0,0-2.39.12,3.17,3.17,0,0,0-1.91,4.48h2.35a3.44,3.44,0,0,0,.09-1.36c0-.88.25-1.1,1.13-1,.48.07.57.15.57.65,0,1.07,0,2.15,0,3.23,0,.53-.19.75-.73.75-1.43,0-2.87,0-4.3,0a.79.79,0,0,1-.79-.62,8.59,8.59,0,0,1-.33-4.89,4.63,4.63,0,0,1,3.71-3.66,7,7,0,0,1,3.52.1,5.12,5.12,0,0,1,3.72,4.77,7.18,7.18,0,0,1-.52,3.49A1.45,1.45,0,0,1,192,29.26Z"/><path class="cls-1" d="M20.41,110.89c-.5,0-1,0-1.48,0H16.67c-.21-1.11,0-1.66.9-2.12.31-.17.65-.3,1-.44l1.92-.79c.27-.11.51-.23.51-.55,0-.54,0-1.08,0-1.61,0-.26-.18-.36-.42-.32a4.75,4.75,0,0,0-.64.2c-.58.25-1.15.51-1.73.75A4.61,4.61,0,0,0,16,107.57l-.26-.52a2.77,2.77,0,0,0-2.89-1.43,2.55,2.55,0,0,0-2.32,1.85,1.9,1.9,0,0,0-.17.65c-.05,1.47-.1,2.95-.11,4.43,0,.37.22.55.59.61a4.87,4.87,0,0,0,.54,0h9.15a.42.42,0,0,0,.48-.44c0-.45,0-.89,0-1.34A.46.46,0,0,0,20.41,110.89Zm-5.56,0H12c0-.57,0-1.11,0-1.63A1.29,1.29,0,0,1,13.28,108,1.4,1.4,0,0,1,14.77,109,5.27,5.27,0,0,1,14.85,110.85Z"/><path class="cls-1" d="M194,31.66a4,4,0,0,0-.6,0h-9.07a.46.46,0,0,0-.53.48,8.67,8.67,0,0,0,0,1.14c0,.59.11.64.69.65h3l.64,0a1.71,1.71,0,0,1-1.08,2.17c-.22.11-.44.22-.67.31-.71.29-1.41.58-2.12.85a.68.68,0,0,0-.5.71c0,.38,0,.76,0,1.14,0,.66.18.77.79.54s1.35-.58,2-.87a4.43,4.43,0,0,0,2.22-1.55l.18.33a2.75,2.75,0,0,0,3,1.61,2.65,2.65,0,0,0,2.39-2.2,2,2,0,0,0,.11-.53c0-1.39.05-2.78.05-4.17C194.61,31.9,194.41,31.72,194,31.66Zm-1.19,4a1.26,1.26,0,0,1-1.22,1.21,1.42,1.42,0,0,1-1.56-1A4.3,4.3,0,0,1,190,34h2.86C192.85,34.54,192.89,35.09,192.84,35.64Z"/><path class="cls-1" d="M190.78,144.93c-.92,0-1.84,0-2.76,0a6.48,6.48,0,0,1-1.46-.17,3.72,3.72,0,0,1-2.82-3.47,6.33,6.33,0,0,1,.21-2.73,3.39,3.39,0,0,1,2.88-2.48A6.26,6.26,0,0,1,188,136h5.92c.68,0,.78.1.83.76v.06c.08,1.37,0,1.45-1.33,1.45-1.71,0-3.41,0-5.12,0a5.37,5.37,0,0,0-1.2.12,1.94,1.94,0,0,0-1.51,2,1.92,1.92,0,0,0,1.46,2.13,4.21,4.21,0,0,0,1.06.12h5.79c.74,0,.82.07.85.79a5.9,5.9,0,0,1,0,.94c-.06.42-.18.52-.63.52Z"/><path class="cls-1" d="M14.09,48.71H10.86c-.68,0-.76-.08-.8-.77a8.42,8.42,0,0,1,0-.87c.06-.54.17-.64.73-.64h5.78a4.8,4.8,0,0,0,1.2-.13,2,2,0,0,0,1.44-2.22,1.93,1.93,0,0,0-1.6-2A6.26,6.26,0,0,0,16.48,42H10.9c-.74,0-.8-.06-.84-.8-.08-1.37,0-1.44,1.34-1.44,1.77,0,3.55,0,5.32,0a7.88,7.88,0,0,1,1.53.17,3.38,3.38,0,0,1,2.51,2.31,6.18,6.18,0,0,1,0,4,3.54,3.54,0,0,1-3.53,2.41c-1.05,0-2.1,0-3.16,0Z"/><path class="cls-1" d="M14.08,132.7H10.92c-.67,0-.72,0-.78-.72a7.69,7.69,0,0,1,0-1.07c0-.35.21-.5.57-.5.9,0,1.79,0,2.69,0h3.23c.22,0,.45,0,.67,0A2.23,2.23,0,0,0,19,127a1.81,1.81,0,0,0-1.24-.85,6.18,6.18,0,0,0-1.13-.11c-1.89,0-3.77,0-5.66,0-.72,0-.74,0-.82-.74a2.45,2.45,0,0,1,0-.27c0-1.13.06-1.23,1.17-1.23,1.81,0,3.63,0,5.45,0a7.39,7.39,0,0,1,1.33.11A3.56,3.56,0,0,1,21,126.64a6.45,6.45,0,0,1,.08,2.93,3.57,3.57,0,0,1-3.72,3.12c-1.08,0-2.16,0-3.23,0Z"/><path class="cls-1" d="M194,127a4,4,0,0,0-.6,0h-9a.45.45,0,0,0-.54.46c0,.45,0,.89,0,1.34a.47.47,0,0,0,.54.47h3.2v1.3a4.88,4.88,0,0,0,.45,2,3.49,3.49,0,0,0,3.82,1.87,2.82,2.82,0,0,0,2.62-2.63,38.38,38.38,0,0,0,.14-4.16C194.62,127.28,194.39,127.08,194,127Zm-1.16,3.89a1.34,1.34,0,0,1-1.08,1.15,1.78,1.78,0,0,1-2.41-1.79c0-.31,0-.61,0-1h3.5A12.17,12.17,0,0,1,192.82,130.92Z"/><path class="cls-1" d="M188.55,43.62h-2.8a4.43,4.43,0,0,0-.06.51c0,1,0,1.93,0,2.89,0,.67-.1.76-.78.79h-.27c-.66,0-.76-.13-.76-.81V42.36c0-.87.19-1,1.08-1h8.67c.89,0,1.07.18,1.08,1.06V47c0,.64-.1.74-.73.76h-.34c-.64,0-.74-.11-.74-.74,0-.9,0-1.8,0-2.69v-.7h-2.53v1.13c0,.6,0,1.21,0,1.81a.49.49,0,0,1-.5.58,2.6,2.6,0,0,1-.4,0c-.71,0-.81-.11-.82-.81,0-.85,0-1.7,0-2.55A1,1,0,0,0,188.55,43.62Z"/><path class="cls-1" d="M19.06,119.12v-1.24c0-.74,0-1.48,0-2.22,0-.53.09-.61.62-.67a1.77,1.77,0,0,1,.4,0c.66,0,.76.13.76.81v4.7c0,.82-.17,1-1,1H11c-.82,0-1-.17-1-1v-4.71c0-.65.09-.73.72-.76a2.81,2.81,0,0,1,.41,0c.56,0,.65.13.65.69,0,1,0,2,0,3a4.08,4.08,0,0,0,0,.43h2.5V118c0-.61,0-1.22,0-1.82a.68.68,0,0,1,.18-.46,1.56,1.56,0,0,1,1.35,0,.91.91,0,0,1,.19.54c0,.71,0,1.43,0,2.15v.65A9,9,0,0,0,19.06,119.12Z"/><path class="cls-1" d="M192.84,149.87H190.3l0,1.86c0,.32,0,.63,0,.94,0,.59-.14.69-.74.7a2.48,2.48,0,0,1-.47,0c-.47-.07-.52-.13-.52-.61,0-.76,0-1.52,0-2.29,0-.19,0-.39,0-.67h-2.89a2.56,2.56,0,0,0,0,.45c0,1,0,2-.07,3,0,.57-.11.66-.67.69a2.67,2.67,0,0,1-.4,0c-.68,0-.75-.13-.73-.83l.12-4.64c0-.84.2-1,1-1l8.95.25c.64,0,.84.23.82.88,0,1.61-.07,3.22-.11,4.84,0,.63-.14.72-.77.74a2.61,2.61,0,0,1-.4,0c-.55-.07-.65-.17-.64-.72,0-.92.06-1.84.08-2.76C192.84,150.39,192.84,150.19,192.84,149.87Z"/><path class="cls-1" d="M188.52,86.4h-3v.72c0,.92,0,1.84,0,2.76,0,.55-.11.65-.67.69a2.43,2.43,0,0,1-.27,0c-.77,0-.84-.07-.84-.85,0-1.52,0-3,0-4.57a3.26,3.26,0,0,1,0-.54.54.54,0,0,1,.53-.51H194a.62.62,0,0,1,.6.54,1.23,1.23,0,0,1,0,.2V90a.13.13,0,0,1,0,.06c0,.35-.24.45-.83.47s-.88-.1-.94-.42a3.65,3.65,0,0,1,0-.47c0-.9,0-1.79,0-2.69,0-.18,0-.35,0-.57h-2.49v2.69c0,.73-.1.82-.8.84l-.47,0a.44.44,0,0,1-.47-.52v-3Z"/><path class="cls-1" d="M16.29,66.91h2.89V65.48c0-.72,0-1.44,0-2.15,0-.45.09-.54.54-.6a1.88,1.88,0,0,1,.41,0c.72,0,.82.11.82.81v4.71c0,.83-.15,1-1,1q-4.41,0-8.81,0c-.86,0-1-.13-1-1q0-2.38,0-4.77c0-.58.07-.65.64-.71h.41c.63,0,.72.13.72.77,0,.89,0,1.79,0,2.69v.69h2.55V65.63c0-.58,0-1.17,0-1.75a.44.44,0,0,1,.43-.49,4.87,4.87,0,0,1,.54,0c.69,0,.76.09.77.79,0,.85,0,1.7,0,2.55A1.08,1.08,0,0,0,16.29,66.91Z"/><path class="cls-1" d="M12.49,31.91c-.14.29-.28.55-.39.81a3.24,3.24,0,0,0-.32,2,1.06,1.06,0,0,0,.83.94,1,1,0,0,0,1.11-.45,8.43,8.43,0,0,0,.59-1.06c.28-.56.52-1.14.84-1.68a3.12,3.12,0,0,1,5.32,0,5.26,5.26,0,0,1,.06,5.09,1.58,1.58,0,0,1-2,.44.42.42,0,0,1-.08-.4,3.8,3.8,0,0,1,.31-.6,3.78,3.78,0,0,0,.43-2.53,2.22,2.22,0,0,0-.24-.62,1.12,1.12,0,0,0-1.79-.15,5.42,5.42,0,0,0-.67,1.08c-.29.56-.52,1.15-.83,1.68a2.89,2.89,0,0,1-3.16,1.44,2.86,2.86,0,0,1-2.4-2.25,5.17,5.17,0,0,1,.21-3.36.92.92,0,0,1,1-.69C11.73,31.65,12.14,31.51,12.49,31.91Z"/><path class="cls-1" d="M192.33,120.56c.09-.21.2-.4.27-.61.16-.44.31-.88.45-1.33a1.83,1.83,0,0,0,0-.47,1.25,1.25,0,0,0-.84-1.31c-.54-.14-1,.09-1.37.73-.18.31-.31.65-.46,1-.25.5-.48,1-.76,1.5a3.15,3.15,0,0,1-5.19.15,5.49,5.49,0,0,1-.15-5.38,1.65,1.65,0,0,1,1.93-.36.51.51,0,0,1,.07.41,3.35,3.35,0,0,1-.28.53,3.89,3.89,0,0,0-.47,2.47,1.82,1.82,0,0,0,.23.69,1.13,1.13,0,0,0,1.83.18,5.42,5.42,0,0,0,.65-1.09c.28-.53.5-1.1.81-1.62a2.93,2.93,0,0,1,3.26-1.47,2.88,2.88,0,0,1,2.34,2.32,5.12,5.12,0,0,1-.13,3c-.28.81-.48.94-1.34.92A1,1,0,0,1,192.33,120.56Z"/><path class="cls-1" d="M192.31,55.24c.16-.34.3-.64.43-.94a3,3,0,0,0,.27-1.9,1.07,1.07,0,0,0-1.93-.45,8.78,8.78,0,0,0-.55,1c-.29.55-.53,1.14-.83,1.68a3.14,3.14,0,0,1-5.44-.08,5.32,5.32,0,0,1,0-5,1.55,1.55,0,0,1,2-.45.45.45,0,0,1,.11.39,4.75,4.75,0,0,1-.31.59,3.88,3.88,0,0,0-.44,2.6,1.28,1.28,0,0,0,.8,1,1,1,0,0,0,1.27-.33,6.26,6.26,0,0,0,.62-1c.28-.54.5-1.1.8-1.63a2.9,2.9,0,0,1,3.18-1.5,2.87,2.87,0,0,1,2.43,2.3,5,5,0,0,1-.17,3.16c-.27.72-.44.83-1.19.84A1.36,1.36,0,0,1,192.31,55.24Z"/><path class="cls-1" d="M12.38,51.22c-.1.23-.2.48-.32.71a3.6,3.6,0,0,0-.41,1.88,1.15,1.15,0,0,0,.79,1.13,1.06,1.06,0,0,0,1.26-.53,8.79,8.79,0,0,0,.53-1c.29-.56.53-1.14.85-1.67a3.12,3.12,0,0,1,5.21,0A5.21,5.21,0,0,1,20.42,57a.85.85,0,0,1-.87.52h-.2c-1.21.05-1.18-.3-.7-1a3.41,3.41,0,0,0,.54-2.18,2.49,2.49,0,0,0-.23-.9,1.12,1.12,0,0,0-1.9-.25,4.7,4.7,0,0,0-.58,1c-.27.52-.48,1.07-.77,1.57a3,3,0,0,1-3.18,1.64A2.94,2.94,0,0,1,10,54.76a5.28,5.28,0,0,1,.28-3.16.87.87,0,0,1,.92-.63C11.58,51,12,50.87,12.38,51.22Z"/><path class="cls-1" d="M12.46,143.2c-.2.47-.4.89-.56,1.33a2.51,2.51,0,0,0-.11,1.58,1,1,0,0,0,1.83.46,5.63,5.63,0,0,0,.62-1c.28-.56.51-1.15.82-1.69a2.84,2.84,0,0,1,2.7-1.57A3,3,0,0,1,20.59,144a5.4,5.4,0,0,1,0,4.8.94.94,0,0,1-.95.62c-.22,0-.45,0-.67,0-.54-.06-.64-.23-.38-.69a4.48,4.48,0,0,0,.7-2.08,3.88,3.88,0,0,0-.11-1.13,1.11,1.11,0,0,0-.94-.85,1.08,1.08,0,0,0-1.17.5c-.2.31-.37.66-.55,1-.28.56-.52,1.15-.85,1.68a2.88,2.88,0,0,1-3.05,1.39,2.85,2.85,0,0,1-2.42-2.14,5,5,0,0,1,.1-3.3c.27-.77.42-.87,1.23-.86C11.82,142.93,12.18,142.82,12.46,143.2Z"/><path class="cls-1" d="M11.85,99.59v3.66c0,.14,0,.28,0,.41-.06.36-.28.46-.91.46s-.82-.11-.87-.5c0-.11,0-.22,0-.33,0-1.78,0-3.55,0-5.32,0-.84.14-1,1-1a2.54,2.54,0,0,1,1.51.46c1.93,1.24,3.86,2.46,5.79,3.69.18.12.37.22.63.38A4.83,4.83,0,0,0,19,101c0-1.16,0-2.33,0-3.5,0-.59.07-.66.65-.69h.4c.67,0,.74.09.74.74q0,2.9,0,5.79c0,.76-.2.95-.95,1a2.41,2.41,0,0,1-1.44-.47l-5.84-3.72Z"/><path class="cls-1" d="M12.05,138.33h2.81v-1.09c0-.67,0-1.34,0-2,0-.45.17-.52.89-.52s.88.08.9.52c0,.69,0,1.39,0,2.08v1c.19,0,.36.06.53.06h3c.67,0,.71,0,.79.71l0,.27c.06,1.19-.05,1.31-1.23,1.31H11c-.61,0-.81-.2-.82-.8s0-1.26,0-1.88c0-.95,0-1.89,0-2.83,0-.48.09-.58.56-.65a3.25,3.25,0,0,1,.54,0c.64,0,.76.16.76.83Z"/><path class="cls-1" d="M185.71,98.59v2.93c0,.69-.08.76-.76.8h-.2c-.83,0-.91-.09-.91-.92,0-1.37,0-2.74,0-4.1,0-.85.14-1,1-1h9.08c.65,0,.7,0,.78.72a1.84,1.84,0,0,1,0,.33c0,1.13-.08,1.24-1.18,1.24h-7.81Z"/><path class="cls-1" d="M166.44,179.64c-.12-1.66-.24-3.31-.37-5a43.17,43.17,0,0,0-1.36-8.21A22.34,22.34,0,0,0,157,154.37a19.13,19.13,0,0,0-3.23-2.06c0,.23,0,.39.06.53.11.64.25,1.28.32,1.92a7.09,7.09,0,0,1-.47,3.7,3.33,3.33,0,0,1-5.09,1.49,12.82,12.82,0,0,1-1.57-1.27c-1.44-1.35-2.86-2.73-4.28-4.09a2.1,2.1,0,0,1-.19-.27l1-1.08,13.12-14.62c1.69-1.89,3.39-3.77,5.07-5.68a3.36,3.36,0,0,0,1-2.42,1.4,1.4,0,0,0-1.65-1.42,3,3,0,0,0-1.23.49,7.11,7.11,0,0,0-1.26,1.19l-16.46,19c-.65.76-1.34,1.5-2.06,2.3l-.56-.5-16.22-15.27c-.45-.42-.47-.53-.12-1s.56-.65.83-1l.9-1.09a2,2,0,0,0,.15-2.49,8,8,0,0,0-1.17-1.47c-1.83-1.78-3.69-3.54-5.55-5.29a3.44,3.44,0,0,0-.77-.54,2.39,2.39,0,0,0-3,.38c-.15.17-.33.31-.48.47-2,2.11-4,4.21-6,6.33-.69.74-1.36,1.49-2,2.28a2.47,2.47,0,0,0-.19,3.12,6,6,0,0,0,.91,1.15c1.89,1.8,3.8,3.56,5.7,5.33a4.19,4.19,0,0,0,.76.57,2.2,2.2,0,0,0,3.12-.44l2.64-2.79c.18-.19.38-.36.59-.56L136.46,156c-.24.28-.44.49-.64.71-4,4.31-8,8.57-12.23,12.69-.32.32-.58.76-1,.92a4.64,4.64,0,0,1-1.4,0,1.46,1.46,0,0,1-1.37-.67,32.69,32.69,0,0,1-4.14-7.67c-.66-1.88-1.26-3.79-1.89-5.68-.12-.35-.26-.69-.41-1.1l-3.08,1.59c.09.61.18,1.14.26,1.67a31.68,31.68,0,0,0,1.63,6.65,55.52,55.52,0,0,0,5.3,10.17,1.17,1.17,0,0,1,.06.2,10.7,10.7,0,0,0-1.79,1.83l3.23,2.89,2-2.2.53.28c2.62,1.39,5.19,2.86,7.85,4.14a41.38,41.38,0,0,0,19.6,3.9,3.67,3.67,0,0,0,.44-.09c-.38-.18-.61-.31-.85-.41l-7.61-3.24a74.8,74.8,0,0,1-10.25-5c-1.35-.83-2.62-1.8-3.93-2.7a1,1,0,0,1-.43-.77,14.29,14.29,0,0,0-.31-1.65c4.19-4.64,8.45-9.34,12.73-14.06.22.2.38.34.54.5l4.11,4.16c.51.52,1,1,1.51,1.54a2.37,2.37,0,0,1,.3,2.92,4.37,4.37,0,0,1-1.46,1.47,13.23,13.23,0,0,1-1.92,1A23.25,23.25,0,0,1,137,171.2l-1.52.25c.19.21.3.35.42.47,1,.86,1.93,1.76,3,2.56A30.09,30.09,0,0,0,157,180.91a48.63,48.63,0,0,0,7.24-.44c.73-.08,1.45-.24,2.17-.36A3.63,3.63,0,0,0,166.44,179.64Zm-39.95-4.14a65.05,65.05,0,0,0,11,6.06c3.4,1.49,6.85,2.86,10.29,4.29l.34.16a43.28,43.28,0,0,1-12.3-1.64,48.26,48.26,0,0,1-8.84-3.72q-2.46-1.31-4.94-2.59a2.73,2.73,0,0,0-.55-.25,6,6,0,0,1-3.78-3.11c-.64-1.13-1.25-2.28-1.89-3.41a38.69,38.69,0,0,1-3.36-7.24A43.48,43.48,0,0,1,111,157.9c-.1-.7-.09-.72.52-1.07l1.58-.85c.07.16.14.29.19.43.76,2.13,1.48,4.27,2.28,6.39a31.61,31.61,0,0,0,4.1,7.61,1,1,0,0,0,1,.47A10.76,10.76,0,0,1,123,171a3.24,3.24,0,0,1,2.64,2.72,2.51,2.51,0,0,1,.1.66C125.72,174.92,126.06,175.2,126.49,175.5Zm-16.8-41.35a4.12,4.12,0,0,1,.43-.6l5.14-5.85a7.06,7.06,0,0,1,.67-.67,1,1,0,0,1,1.29-.11,3.37,3.37,0,0,1,.62.51c1.19,1.13,2.36,2.27,3.54,3.4.54.52.59.8.09,1.37q-2.94,3.31-5.92,6.61a1.23,1.23,0,0,1-1.15.49,2.72,2.72,0,0,1-.63-.31c-.72-.53-1.42-1.08-2.11-1.65s-1.11-1-1.67-1.47A1.2,1.2,0,0,1,109.69,134.15Zm27.09,21.52-.53-.5L120.4,139.52c-.82-.81-.93-.8-1.7,0s-1.78,1.89-2.7,2.82a1.71,1.71,0,0,1-2.42.32,11.11,11.11,0,0,1-1.61-1.21q-2.56-2.32-5.08-4.7a3.28,3.28,0,0,1-1-3l3.36.17c0,.07,0,.11,0,.15-.41,1.18-.34,1.47.6,2.27l3.12,2.68c.15.12.31.25.48.36a1.64,1.64,0,0,0,2.11-.13,6,6,0,0,0,.57-.56l5.32-6c.07-.08.15-.16.22-.25.67-.8.64-1.23-.13-1.94-1.29-1.18-2.57-2.38-3.85-3.56l-.3-.27a1.11,1.11,0,0,0-1.63,0l-.48.45c-.07-.37-.14-.66-.19-1-.1-.55-.17-1.11-.3-1.66a.68.68,0,0,1,.39-.82,1.73,1.73,0,0,1,1.56-.12,3.75,3.75,0,0,1,1.22.68c2,1.9,4.08,3.84,6.11,5.77a3.31,3.31,0,0,1,.53.7,1.89,1.89,0,0,1-.19,2.41c-.42.5-.86,1-1.3,1.46-.11.14-.23.27-.34.42-.55.7-.53.92.11,1.52l16.28,15.3c.16.15.34.29.54.46Zm2.5,2.59h0l-.14-.15.54-.6,0,0,2.54-2.84.18.17Z"/><path class="cls-1" d="M154.8,130.73c-.83-3.07-1.69-6.13-2.49-9.21a2.51,2.51,0,0,0-1.18-1.65,10.26,10.26,0,0,0-8.82-1.25,1.92,1.92,0,0,1-1.59-.06,4.48,4.48,0,0,0-.83-.27,11.16,11.16,0,0,0-5.65.19,18.35,18.35,0,0,0-3.41,1.39,1.48,1.48,0,0,0-.91,1.11c-.68,3.13-1.39,6.26-2.09,9.38-.07.33-.13.65-.21,1,4.16-.1,8.26.06,12.3-.62a1.79,1.79,0,0,0,3.08,0c3.92.52,7.89.46,12,.65C154.89,131.12,154.85,130.92,154.8,130.73Zm-1.27.3-9.32-.5a2.73,2.73,0,0,1-1.51-.5,2.89,2.89,0,0,0-2.19-.29.42.42,0,0,0-.17.1,3.57,3.57,0,0,1-2.29.82c-1.58.14-3.17.24-4.75.3-1.26,0-2.51,0-3.77,0-.21,0-.43,0-.8-.05.27-.27.52,0,.69-.18-.17.09.81-1-.66-.15.07-.37.12-.69.19-1,.61-2.84,1.25-5.68,1.83-8.53.14-.7.56-1,1.22-1.25-.2,1-.39,1.86-.58,2.75-.47,2.19-1,4.37-1.4,6.57-.09.47-.14.42-.37.78,1.72-1,3.39-1,5.34-1.14.89-.07,1.78-.18,2.67-.19s1.69.11,2.53.18a11.61,11.61,0,0,0-1.16-.3,17.53,17.53,0,0,0-4.22.05,15.13,15.13,0,0,0-4.66,1.13,3.58,3.58,0,0,1,0-.45q1-4.57,1.94-9.13a.74.74,0,0,1,.45-.61,11.49,11.49,0,0,1,8.64-.41c.06,0,.11.08.19.13v9.77l-.84-.16c-.33.1,1,.45,1.56.29.84-.22,1.7-.35,2.56-.52l.35-.1h0l-3.48.43v-9.71a9,9,0,0,1,2.79-.65,9.73,9.73,0,0,1,5.65,1.1,1.51,1.51,0,0,1,.73.66c.07,0,.15-.12.2-.1a.8.8,0,0,1,.44.63,26.36,26.36,0,0,0,.9,3.55c.65,1.65.94,3.38,1.45,5.06.16.51.25,1,.39,1.62A5,5,0,0,1,153.53,131Z"/><path class="cls-1" d="M127,65.18a3.51,3.51,0,0,0,.54,2.48c.32.5.28.67-.23,1.3,0-.26-.1-.46-.13-.67a1.1,1.1,0,0,0-.87-1.06.85.85,0,0,1-.63-.55,2,2,0,0,0-.44-.58c-.52-.52-1.06-1-1.58-1.55a1.8,1.8,0,0,1-.28-.42c.21-.26.5-.44.51-.64a2.23,2.23,0,0,0-.21-1.56.68.68,0,0,0-.78-.26c-.22,0-.43.12-.7.2a2.48,2.48,0,0,1,.08-.84,1,1,0,0,0-.2-1.16.89.89,0,0,1,.77.49,1.42,1.42,0,0,0,1.19.72l-.18.62c.09,0,.16.06.21,0,.46-.21.53-.42.19-.81a11.39,11.39,0,0,1-1.7-2.65l-.34-.74a2.63,2.63,0,0,1-.36,0c-.54,0-.61,0-.65-.58a7.93,7.93,0,0,0-.14-.85,1.29,1.29,0,0,1,0-.39c.07-.39.17-.77.28-1.24,1.06.15,1.64,1.14,2.62,1.51,0,.38-.09.7-.13,1a1.43,1.43,0,0,0,.33,1.18,4.41,4.41,0,0,1,.58,1.12c.14.35.23.71.34,1,.51.05.59-.34.77-.59.63-.07.63-.07.88.46-.27.16-.77.08-.72.7.16,0,.32-.08.46-.14a1.75,1.75,0,0,1,1.62,0,6.4,6.4,0,0,1,2,1.47,1.32,1.32,0,0,0,.85.6c.31,0,.42.29.54.54.23.49.28.47.82.33a3.29,3.29,0,0,1,1,0,2.53,2.53,0,0,1,1.54.56h-1.38c0,.34,0,.61.24.77a1.18,1.18,0,0,1,.53.9,2.71,2.71,0,0,0,.67,1.44,1.49,1.49,0,0,1,.21.47l-1-.18a9.58,9.58,0,0,0-.63-.75c-.65-.61-1.33-1.19-2-1.81a4.07,4.07,0,0,1-.53-.69c-.15-.19-.28-.41-.43-.6-.58-.69-.85-.75-1.68-.38l-.12,0-1.59-.76a.59.59,0,0,0,.06.75c.3.39.61.78.93,1.15.19.21.38.39.22.78Z"/><path class="cls-1" d="M132.09,125.76a1,1,0,0,1,1.09-.58,30.59,30.59,0,0,0,4.88-.06.82.82,0,0,1,.27,0,3.32,3.32,0,0,0,1.77.07c.41-.08.5,0,.61.53-.73-.33-1.48,0-2.23-.25a3.42,3.42,0,0,0-1.39,0,14.17,14.17,0,0,1-3.68.07,2.14,2.14,0,0,0-.65.1Z"/><path class="cls-1" d="M132.47,121c.7,0,1.27-.35,1.9,0a.77.77,0,0,0,.39.09c1.54-.14,3.07.19,4.61,0a1.05,1.05,0,0,1,1.08.37,1.77,1.77,0,0,1-.39,0c-.51,0-1-.1-1.53-.11-1.27,0-2.54,0-3.82,0a.91.91,0,0,1-.33,0,1.65,1.65,0,0,0-1.18,0C133,121.44,132.71,121.47,132.47,121Z"/><path class="cls-1" d="M141.44,123.44c-.73.26-6.53-.25-7.18-.17s-1.29.22-2,.36C133.06,122.94,140.4,122.94,141.44,123.44Z"/><path class="cls-1" d="M150.14,121.58a6.9,6.9,0,0,1-2.64-.17,4.07,4.07,0,0,0-1-.14,1.93,1.93,0,0,1-1-.22.86.86,0,0,0-.63,0,1.79,1.79,0,0,1-1.05,0,4.77,4.77,0,0,0-.92,0,1.34,1.34,0,0,1-.62-.09,2.44,2.44,0,0,1,1.63-.28,1.28,1.28,0,0,0,1,0,1.29,1.29,0,0,1,.64,0,1.7,1.7,0,0,0,.39,0c1.22-.14,2.31.7,3.52.57C149.7,121.26,150,121.25,150.14,121.58Z"/><path class="cls-1" d="M142.92,123.69c.55-.16,2.55-.26,3.09-.32a36.23,36.23,0,0,1,4.18.32,9,9,0,0,1,1.19.06,4.47,4.47,0,0,1-1.24.13,5.49,5.49,0,0,1-1.41-.09,6.58,6.58,0,0,0-1.83-.09,10,10,0,0,0-2.67.13.9.9,0,0,1-.46,0,1.79,1.79,0,0,0-1.14-.09s-.73.77-.76.74"/><path class="cls-1" d="M142.93,126.56a3.18,3.18,0,0,1,1.71-.73c1.43,0,2.85-.09,4.28-.12a2.64,2.64,0,0,1,.79.1c.47.14,2.68,1.07,3.17,1.25-.24.26-2.27-.52-2.5-.66a3.82,3.82,0,0,0-2.4-.33,29,29,0,0,1-2.95.06,2.32,2.32,0,0,0-1.51.44,7.53,7.53,0,0,1-1,.21C142.51,126.71,143,126.64,142.93,126.56Z"/><path class="cls-1" d="M151.78,129.52a11.05,11.05,0,0,0-2.87-.86l-1.44-.27a13,13,0,0,1,4.92,1.11s.05.07.08.1v.12h0Z"/><path class="cls-1" d="M147.5,128.4h-2.45A5.2,5.2,0,0,1,147.5,128.4Z"/><path class="cls-1" d="M152.46,129.72v-.12c.2,0,.43.05.4-.28l.23.55Z"/><path class="cls-2" d="M90.83,75.47A20.09,20.09,0,0,0,91.94,73a5.45,5.45,0,0,0-.69-5.24c-.47-.65-.88-1.35-1.31-2a10.35,10.35,0,0,1-1.56-4.54c-.14-1.67-.29-3.35-.38-5a11,11,0,0,0-2-5.61,4.51,4.51,0,0,0-.37-.39l-2.34-2.49c-.1-.1-.17-.21-.27-.3-.45-.4-.91-.79-1.36-1.2-.74-.68-1.45-1.4-2.23-2a3.61,3.61,0,0,0-1.22-.66,9.23,9.23,0,0,1-2-.85A13.63,13.63,0,0,0,71,40.64a2.38,2.38,0,0,1-.58-.16c-.69-.26-1.36-.58-2.06-.79a3.25,3.25,0,0,1-2.29-2.34c-.13-.41-.25-.82-.39-1.22a2.22,2.22,0,0,0-1.59-1.51A16.73,16.73,0,0,0,62,34.21a3.69,3.69,0,0,0-.87.07v.15c.27.09.54.19.82.26.54.14,1.08.3,1.63.4a2.45,2.45,0,0,1,1.94,1.67l.61,1.56A2,2,0,0,0,67.4,39.6a31.81,31.81,0,0,0,4.3,1.56,8.75,8.75,0,0,0,.71,4.07,1.11,1.11,0,0,1,.07.26c.11.52,0,.7-.5.83-.19,0-.4.06-.6.1a6.3,6.3,0,0,0-1.3.3,1.64,1.64,0,0,1-1.59-.11c-.83-.44-1.65-.91-2.51-1.3a6.73,6.73,0,0,0-1.83-.63A12,12,0,0,0,54.77,47a21.93,21.93,0,0,0-4.47,4.81,15.48,15.48,0,0,0-2.2,4.37,4.49,4.49,0,0,0-.24,1.92,1.46,1.46,0,0,0,.07.19l.52.21-.24.55c-.1-.48-.38-.39-.64-.33s-.46.25-.79.09l.57-.76L47,57.64c0-.22.07-.42.12-.61s.14-.36.18-.54a2.9,2.9,0,0,0,0-.51c.16-.24.63-.27.47-.72-.36,0-.62.59-1.12.13L47.78,55c.34-.1.64-.22.64-.65,0-.24.28-.5-.06-.73a.37.37,0,0,1,0-.28,1.84,1.84,0,0,1,.4-.19c0-.13,0-.26,0-.38l.72-.39-.91-.12c.77-.25.25-.8.49-1.1l.54.34c.24.14.42.16.44-.19L49.56,51l0-.11.68-.08c0-.12,0-.22,0-.36l.53.11c-.16-.7-.82-.26-1.13-.66l1.34-.3c.09,0,.27.3.54,0l-.28-.4.44-.3c0-.32.08-.59.11-.84-.18-.2-.64.17-.69-.42.41.16.78.26.95-.25,0,0,.08-.06.11-.06.68.05,1-.35,1.2-1l.32.59.25-.62c-.14-.33-.61-.36-.49-.8.73.58,1,.58,1.7,0a2.49,2.49,0,0,0-.62-.26,1.84,1.84,0,0,0-.6.1l0-.09.84-.68c.16.08.35.37.64.1.06,0,.25,0,.36.09l.6.32.29-.54-.18-.38c.34-.09.4.1.51.28s.21.1.32.15a1.33,1.33,0,0,0,.05-.34,1.52,1.52,0,0,0-.1-.36,2.58,2.58,0,0,0,.66.21A10.59,10.59,0,0,0,59,43.93c-.15-.22-.44-.44-.18-.7l.82.12c0-.23.05-.37.06-.5.2,0,.38.1.5,0a6.78,6.78,0,0,1,3.31-.28,19.42,19.42,0,0,1,6.13,1.9c.67.32,1.32.66,2,1l.09-.1a2.72,2.72,0,0,0-1.19-1,24.43,24.43,0,0,0-5.92-2.16,4,4,0,0,0-1.2-.12c-1.16,0-2.32.12-3.49.19a10.88,10.88,0,0,0-4.71,1.44,7.36,7.36,0,0,1-.85.41c-.4.16-.67.07-.79-.24s.11-.49.33-.65.4-.24.61-.37a1.13,1.13,0,0,0-.14-.15c-.16-.1-.33-.18-.24-.41s.31-.22.5-.18c.44.07.92.07,1.11.61l.8-.39c-.37-.51-1.08-.23-1.42-.75l2.39.11c.83,0,1.66.09,2.48.07s1.93-.15,2.89-.21a3.64,3.64,0,0,0,1.79-.51,4.08,4.08,0,0,1,1.69-.6,2.54,2.54,0,0,0,.44-.15,2.22,2.22,0,0,0-1.53.23,7.76,7.76,0,0,1-2.93.65c-.87,0-1.75,0-2.62-.05a5.47,5.47,0,0,1-.87-.15c.36-.42.23-.86.21-1.29-.38-.09-.37-.49-.57-.79l-.41.39-.32-.27c0,.23,0,.39-.07.59l-.5-.29-1.2.56c.11-.47.5-.57.84-.71a14.35,14.35,0,0,1,5.72-1c.79,0,1.57,0,2.36,0a3.1,3.1,0,0,0,.51-.11,1.12,1.12,0,0,0-.6-.28c-.8-.1-1.6-.2-2.41-.26a23.65,23.65,0,0,0-4.83.12c-.95.13-1,.08-1.14-.81l-.06-.1-1,.1a3.71,3.71,0,0,1,1.87-1,20.45,20.45,0,0,1,2.22-.19,2,2,0,0,0-1.22-.4c-.47,0-.94-.07-1.41-.13a.74.74,0,0,1-.71-.63c1.53-.19,3,.4,4.5.13a.4.4,0,0,0-.26-.19c-.59-.09-1.19-.16-1.79-.26a9.37,9.37,0,0,0-3.08.1c-.28,0-.59.17-.54.48s-.07.62,0,.87c.16.49-.1.69-.41.94a1.72,1.72,0,0,0-.6.6,2.62,2.62,0,0,0-.29,1.9c.2-.54.15-1.13.59-1.46,0,.34.09.69.14,1.1-.13.39-.33.85-.45,1.33s.19.95-.15,1.43c-.07-.08-.12-.12-.14-.18a.87.87,0,0,1,0-.25c-.68.4-.68.4-1,.38a1.73,1.73,0,0,0,1-1.9c-.08.14-.15.2-.16.28a2,2,0,0,1-1.25,1.48,12.37,12.37,0,0,1-1.31.53,24.64,24.64,0,0,0-5.14,2.62,18.24,18.24,0,0,0-3.69,3.22,6.75,6.75,0,0,0-.56.76c-.73,1.1-1.46,2.21-2.17,3.32a9.27,9.27,0,0,0-.64,1.1,30.06,30.06,0,0,0-1.81,4.91,38.42,38.42,0,0,0-1.26,6.39c-.07.8-.18,1.6-.29,2.4a39.55,39.55,0,0,0-.51,7.37c0,.81,0,1.62.1,2.41.31,2.36.68,4.71,1,7.06A18.72,18.72,0,0,0,38,89.72a6.26,6.26,0,0,0,1.18,1.53,14.55,14.55,0,0,0,2,1.52,16.08,16.08,0,0,0,1.56.76,5.66,5.66,0,0,1,.93.52,13.88,13.88,0,0,0,6.56,2.73c.8.13,1.61.19,2.4.3a14.53,14.53,0,0,0,1.92.27,13.83,13.83,0,0,1,2.14.18l.2,0c1.52,0,3.05,0,4.57,0a23.25,23.25,0,0,1,2.89,0,4.33,4.33,0,0,0,.8,0c.47,0,.93-.09,1.4-.11,1.3,0,2.6,0,3.9-.15s2.66-.36,4-.54a32.73,32.73,0,0,0,5.69-1.28c2.22-.71,4.36-1.65,6.63-2.2a.71.71,0,0,0,.54-.52,6.14,6.14,0,0,0,.19-3.5,4.67,4.67,0,0,1-.08-.52c0-.41,0-.82,0-1.2-.67-.14-.77-.3-.61-.74-.25-.22-.48-.4-.69-.59-.48-.44-.6-1.14-1.24-1.51a13.66,13.66,0,0,0,1.1-.85c.33-.29.62-.64,1-1a5.53,5.53,0,0,1,.46.63c.49,1,1,2,1.44,3a2.61,2.61,0,0,1,.18.78,7.79,7.79,0,0,1-1.42,5.53s0,.08,0,.22a6.75,6.75,0,0,0,.71-.48c.6-.54,1.17-1.1,1.76-1.66A3.82,3.82,0,0,0,91.19,89a8,8,0,0,0,.06-4.19c-.39-1.36-.86-2.69-1.31-4a4.18,4.18,0,0,1-.23-1.85A9.89,9.89,0,0,1,90.83,75.47ZM51.21,48.9l-.8.16c-.1-.19,0-.35.18-.45S50.94,48.61,51.21,48.9Zm.33-5.3c-.13.44-.48.78-1.29,1.29A3.71,3.71,0,0,1,51.54,43.6Zm-1.71,0c.06-.16.07-.15.45-.06l-.41.4C49.84,43.78,49.8,43.7,49.83,43.64ZM48.46,44.9a1.12,1.12,0,0,1-.57.69C47.93,45.22,48.19,45.1,48.46,44.9ZM83.08,48a15.21,15.21,0,0,0,2.22,2.32,7.66,7.66,0,0,1,2,3.77,2,2,0,0,1-.31-.42c-.12-.33-.21-.68-.33-1a1.26,1.26,0,0,0-.82-.83c-.4.24-.22.58-.12.91-.72-.29-.3-.86-.36-1.34l-.81.22-.22.61-.65.06c-.25-.27.41-.3.09-.56.14-.21.26-.43.42-.64s.32-.35.48-.53c-.13-.35-.33-.4-.58-.22a.47.47,0,0,1-.55.08c-.25-.13-.39.08-.55.31l.39.22-.44,1-.4-.36c0,.05-.1.09-.1.11a3.72,3.72,0,0,1,.48,1.63,3.91,3.91,0,0,1,0,1.32c-.1.68-.26,1.35-.41,2.08a1.73,1.73,0,0,0-1.54.27c-.2-.27-.26-.65-.7-.63l-.38.55a1.93,1.93,0,0,1-.55-1,11.16,11.16,0,0,0-.35-1.12c-.42.7,0,1.25.29,1.92-.11.2-.24.45-.41.75l-.74-.21c-.1-.81-.18-1.56-.29-2.31a4.09,4.09,0,0,0-1-2.18,2.69,2.69,0,0,1-.69-1.91,1.39,1.39,0,0,0-.44-1.27,5,5,0,0,0,0,.72,5.67,5.67,0,0,0,1,2.93,3.6,3.6,0,0,1,.62,1.4c.18.78.24,1.59.34,2.37l-.57.3-3.13-8.55c1.2,0,2.29,0,3.38,0a1.67,1.67,0,0,1,1.29.64c.29.34.61.65.92,1a2.76,2.76,0,0,1,.78,1.95c0,.54,0,1.08-.06,1.62A2.46,2.46,0,0,0,81.29,56a1,1,0,0,0-.08-.23,3.86,3.86,0,0,1-.46-2.72,3.68,3.68,0,0,0,.08-.8,4,4,0,0,1,.73-2.4c.43-.73.75-1.52,1.14-2.33C82.82,47.68,83,47.82,83.08,48Zm3,15.52-.22.35a.67.67,0,0,1-.46-.79Zm-.75-1c0-.06.11-.1.22-.19,0,.12.08.2.06.25a.2.2,0,0,1-.17.11S85.36,62.52,85.38,62.48Zm.37-2.79a.67.67,0,0,0-1,.3,3,3,0,0,0,0,2.65,2.19,2.19,0,0,1,.37,1.13,3.21,3.21,0,0,1-.82-2.07c0-.79,0-1.57,0-2.36,0-.39,0-.75.47-1l-.3-.19a3,3,0,0,1,0-.79c.13-.5.08-1.12.71-1.36h0c.11,0,.27-.1.32-.06a2.73,2.73,0,0,1,.7.79A10.12,10.12,0,0,1,87,62.93a.55.55,0,0,1-.2.31l-.09-.53c-.11-.7-.22-1.41-.34-2.12A1.21,1.21,0,0,0,85.75,59.69Zm-4-2.57-.33.05a.36.36,0,0,0,0-.11l.34-.11C81.73,57,81.74,57.07,81.74,57.12ZM80,57.43a1,1,0,0,0-.07.15l-.36-.18.06-.12Zm-.82-13.15c.72.63,1.39,1.32,2.08,2,.15.14.31.26.45.4s.32.36.52.59L81.4,48c-.22-.09-.44-.26-.6-.21a2.71,2.71,0,0,0-.71.41.61.61,0,0,0,0,.12l.56,0a3.46,3.46,0,0,1-.15,2.35,2.37,2.37,0,0,1-.3-.23c-.59-.58-1.17-1.18-1.77-1.74a3,3,0,0,1-.88-1.4,14.65,14.65,0,0,1-.72-3.13c0-.21,0-.43,0-.7A3.67,3.67,0,0,1,79.14,44.28Zm-4.45-2.06a4,4,0,0,1,1.72.86.47.47,0,0,1,.1.36,8,8,0,0,0,.51,3c.16.5.29,1,.47,1.63a7.42,7.42,0,0,1-1,0,.75.75,0,0,1-.43-.25A4.52,4.52,0,0,1,75,45.3c0-.76-.2-1.51-.29-2.26A7.17,7.17,0,0,1,74.69,42.22Zm-2.62-1A4.39,4.39,0,0,1,74,42a.83.83,0,0,1,.29.48c.16,1,.29,2,.43,3,.07.56-.13.8-.7.78-.22,0-.44-.07-.66-.09a.59.59,0,0,1-.52-.45A9.65,9.65,0,0,1,72.07,41.2ZM70.36,47a5.78,5.78,0,0,1,1.43-.3c.8-.08,1.6-.1,2.41-.12s1.32.5,1.41,1.64a9.49,9.49,0,0,1-1,.08,10.47,10.47,0,0,0-2.79.24,1.46,1.46,0,0,1-1.7-.63C69.83,47.51,69.89,47.17,70.36,47Zm-14,.2c.05.32-.07.43-.39.3Zm-2.16,1.6.31.42c-.33,0-.43-.12-.44-.33Zm0,1a.57.57,0,0,1,.13-.08l.37.62.48-.29c0-.06,0-.11-.06-.12-.2-.09-.43-.14-.32-.47,0-.11-.07-.28-.11-.41.54-.46.39.27.63.33.3-.23.18-.49,0-.77.48-.2.94-.4,1.41-.58a.38.38,0,0,0,.24-.53.8.8,0,0,1,.15-.87c.31-.37.48-.9,1.17-.79l.23.46s.09,0,.1-.06c.26-.72.26-.72,1.16-.57,0,.17,0,.36-.05.57.07,0,.17,0,.18,0a6.36,6.36,0,0,0,.3-.58,1,1,0,0,1,.25-.44q0,.27.06.57c.38,0,.34-.33.56-.48l.38.36c.08-.24.14-.41.19-.57A7.71,7.71,0,0,1,67,46.27c.71.48,1.46.88,2.17,1.35a2.06,2.06,0,0,1,.91,1.09l-2.36,1a.41.41,0,0,1-.11-.07,6.59,6.59,0,0,0-5.09-2.35,23,23,0,0,0-2.75.11,6,6,0,0,0-3.85,2.26,5.49,5.49,0,0,1-.83.77.9.9,0,0,1-1,.07ZM67.45,52.6l-1.13-.71a15.36,15.36,0,0,0-4-1.85,10.85,10.85,0,0,0-1.38-.27,1.76,1.76,0,0,1-1.08-.48,5.83,5.83,0,0,0-.76-.58.59.59,0,0,1,.53-.63,8.89,8.89,0,0,1,6,.54,17.31,17.31,0,0,1,1.92,1.28C67.13,50.77,67.48,51.63,67.45,52.6ZM58.81,49l-.61-.29C58.67,48.39,58.67,48.39,58.81,49Zm-5,1.72a4.6,4.6,0,0,1-1.73,1.41A7.58,7.58,0,0,1,53.83,50.73ZM53,53.48l-.08.13-.53-.21C52.74,53.18,52.9,53.26,53,53.48Zm-1.33,1.78c-.36.11-.44,0-.52-.38Zm-2,1.39.42.54C49.66,57.14,49.6,57,49.67,56.65Zm-.29,3.83.49-.27c-.15-.49-.3-1-.49-1.56l.53.21.77-.68-.15-.43.57-.32-.52-.36.72-.27-.55-.31,0-.13.91.25c.17-.51.35-1,.54-1.57l.31-.07c0-.15,0-.27.07-.42.53.18.75-.22.9-.56a3.06,3.06,0,0,1,.61-1,3.43,3.43,0,0,0,.54-1l-.48-.12c.39-.34.61,0,.85.12s.5.34.89.61c-.06-.45-.09-.72-.13-1.05l-.53.07-.38-.45,1.56.1c-.12-.16-.18-.24-.23-.32a.2.2,0,0,1,.08-.08c1-.22,2-.49,3-.62a6.66,6.66,0,0,1,3.55.54c1.18.5,2.31,1.09,3.46,1.65a2.4,2.4,0,0,1,.47.37c1,.89,1.94,1.78,3,2.6-.13-.16-.24-.34-.38-.49A6.93,6.93,0,0,1,67.88,52c0-.13-.06-.26-.08-.4-.19-1.32.23-1.92,1.54-2.2.83-.18,1.66-.39,2.49-.54a3.49,3.49,0,0,1,1.07,0,1.06,1.06,0,0,1,.95.8c.62,1.73,1.3,3.44,1.93,5.17.22.58.38,1.19.56,1.79a1.35,1.35,0,0,1,.09.33c0,.33-.18.5-.49.39a2.43,2.43,0,0,1-.37-.16.76.76,0,0,0-.82,0,3.36,3.36,0,0,1-.71.19c.06-.47.08-.82.15-1.16A2.82,2.82,0,0,0,73.8,54a3.22,3.22,0,0,1-.5-1.71,3,3,0,0,0-1.06-2.18,2.86,2.86,0,0,0-.6-.32l-.09.13c.22.28.42.57.65.83a2.35,2.35,0,0,1,.64,1.85,2.31,2.31,0,0,0,.32,1.28,6.61,6.61,0,0,1,.62,1.55,2.36,2.36,0,0,1-.73,2.09l-.78-.39a6.79,6.79,0,0,0-.33-1.78c-.32.76,0,1.47-.22,2.12-.45.13-.81-.47-1.29,0-.1-.44-.19-.81-.32-1.37l-.3.61a7.28,7.28,0,0,1-.53-.59,6,6,0,0,0-1.85-1.83c-1-.64-2-1.25-3-1.8A4,4,0,0,0,61.88,52,5.76,5.76,0,0,1,61,52s-.1,0-.12,0c-.6.5-1.36,0-2,.29-.36-.32-.65.17-1,.1s-.66.25-.94.42a26.19,26.19,0,0,0-2.86,1.89,9.78,9.78,0,0,0-2.92,4.21c-.18.46-.35.92-.56,1.36a3.57,3.57,0,0,1-.47.74.6.6,0,0,1-.72.26Zm26.72,6c.15.09.39.16.42.28s-.13.31-.21.47h-.17l-.21-.6Zm-5.39-2.17c-.54,0-.56.09-.72.69l-.63-.22c1.17-1.62,4.34-1.44,6.38.37-.14,0-.2,0-.23,0C74.05,64,72.37,64.19,70.71,64.26Zm1.94,3c-.12.26-.31.14-.49.11C72.28,67.16,72.41,67,72.65,67.25Zm-6.9-13-.15,0-.26-.43c.23.09.34.1.4.16S65.75,54.14,65.75,54.22ZM49.15,56a1.56,1.56,0,0,1-.46,1.3C48.77,56.76,48.74,56.33,49.15,56ZM47,51.5l.11.08-.51.57-.09-.08Zm-.88-.63c.05.45-.26.55-.56.66Zm-.26,1.85.08.13-.87.57L45,53.28C45.3,53.1,45.6,52.91,45.9,52.72ZM43.44,55a1.76,1.76,0,0,0,.28.59l-.7.15a3.65,3.65,0,0,1,.14-.57.72.72,0,0,0-.34-1,1.6,1.6,0,0,1-.43-.43C43.28,54,43.41,54.19,43.44,55Zm-1.9,5.08c.22-.92.44-1.83.62-2.75a4.61,4.61,0,0,0,0-1l.79,0c-.07.28-.11.47-.17.65-.27.88-.55,1.75-.82,2.63a3.69,3.69,0,0,0-.11.45.74.74,0,0,0,.46.93,10,10,0,0,0,1.38.51,17.06,17.06,0,0,0,5.13.56,1.72,1.72,0,0,0,1.51-.84c.25-.43.47-.87.69-1.31.49-1,.93-2,1.47-2.94a7.46,7.46,0,0,1,2.34-2.47,3.87,3.87,0,0,1,1.93-.73c.83-.07,1.65-.12,2.48-.14a5.18,5.18,0,0,1,2,.36c.7.27,1.44.49,2.13.81a6.85,6.85,0,0,1,4.12,5.51A4.1,4.1,0,0,1,65.85,64l.51-1.72c.14-.17.65,0,.67-.49,0-.12-.14-.24-.23-.38-.19.14-.11.55-.47.36,0-.32-.12-.65-.16-1,0-.15,0-.28.21-.18h0l.32-.52-.64-.27.63-.23v-.14l-.83-.06c0-.1,0-.2,0-.32l.73,0c-.12-.76-.33-.95-1.08-1-.22-.4-.34-.93-.68-1.16a6.21,6.21,0,0,1-.85-.85c-.29-.31-.53-.66-.81-1l-.44.2V55a1.15,1.15,0,0,0-1.51.23.53.53,0,0,0-.7-.17.69.69,0,0,1-.51,0,.56.56,0,0,0-.84.16v-1l-.44.16-.36-.46-.35.79.81.13c-.28.38-.57,0-.84.09l-.27-.75-.43.52-.77-.15c0,.11,0,.21-.05.39l-1.06-.06c-.07.17-.14.35-.22.53l-.69.21c.23.41.42.74.59,1.06a3.85,3.85,0,0,0-.87-.08c-.16,0-.29.26-.46.42l.37.34c-.53.37,0,.72,0,1.14-.29.12-.72.1-.78.56,0,.25-.14.5.28.63-.2.13-.32.22-.41.29l.44.69-.72.18a2.51,2.51,0,0,1,.38.68,1.86,1.86,0,0,1-.14.66l-.53.18c.08.18.15.33.25.53-.4.55-.79,1.15-1.23,1.71a1.71,1.71,0,0,1-1.62.77c-.23,0-.49.09-.79,0l.18-.2.16-.19-1.12-.48c.2-.35.51-.15.85-.14-.25-.37,0-.6.27-.87l-1.21-.4c0-.07-.1-.24-.22-.57-.08.29-.12.43-.21.71-.13-.19-.25-.29-.25-.4,0-.38-.26-.5-.57-.54-.62-.09-1.25-.12-1.87-.25-1-.2-1.91-.46-2.86-.7a1.8,1.8,0,0,1-.49-.22C41.5,60.87,41.41,60.64,41.54,60.09Zm13.87-.32c.23-.2.37-.32.5-.45h0l.35-.41c.21.2.28.34,0,.42a.82.82,0,0,1-.31,0h0c.05.16.11.32.18.53Zm.39,1.47a.47.47,0,0,1-.08.14,1.77,1.77,0,0,1-.31-.15l.08-.18Zm-.11-5.94.1-.09a.74.74,0,0,1,.49.75ZM56.26,62a4.31,4.31,0,0,0,.22-.88l.26-.16a2.54,2.54,0,0,1,.36-2,2,2,0,0,1,.5-.05c.23,0,.42.07.6-.16.06-.07.31,0,.54,0,.06-.13.13-.31.21-.47l-.9-.19-.28.63-.42-.54a3.61,3.61,0,0,1,4.48,0,4.05,4.05,0,0,1,2.24,3.17c.1,2.26-.61,3.7-2.46,4.38a6.88,6.88,0,0,1-3.48.44,1.73,1.73,0,0,1-1.54-1.3c-.2-.66-.37-1.34-.55-2A1.22,1.22,0,0,1,56.26,62Zm5.64-6.82.18,0c0,.08.09.15.09.22a.9.9,0,0,1-.11.27h-.14C61.91,55.5,61.9,55.34,61.9,55.19Zm.67.73a2.71,2.71,0,0,0,.33-.1,2.64,2.64,0,0,0,.35-.21C63.15,56.23,63.11,56.25,62.57,55.92Zm-7.39,6.2c-.4-.47-.41-.7-.12-1.17C55.09,61.33,55.13,61.66,55.18,62.12ZM54,59.32s-.12.08-.18.13a1.74,1.74,0,0,1-.14-.27s.09-.07.17-.14A2,2,0,0,1,54,59.32Zm-6.2,5c.06-.24.1-.41.14-.61C48.32,64,48.32,64,47.82,64.28Zm-.46-1.23a1.43,1.43,0,0,1,0,.29h-.18c0-.11,0-.22,0-.33Zm-2.5.5c-.14-.26-.24-.45-.35-.64C44.92,63,44.92,63,44.86,63.55Zm-5,.56.3.12a10.06,10.06,0,0,0,1.59.69c1.71.44,3.43.86,5.17,1.18a20.11,20.11,0,0,0,2.81.14c.22,0,.51-.09.55.28a23.53,23.53,0,0,1-8.73-1.45,14.57,14.57,0,0,1-1.74-.83A.5.5,0,0,0,39.88,64.11Zm7.68,4.44c-.05.07-.1.16-.12.16a1.28,1.28,0,0,1-.21-.14s.06-.12.09-.12A1,1,0,0,1,47.56,68.55Zm-.81.71c-.27.24-.41.17-.49,0,0,0,.07-.16.08-.16ZM45,70.64l.49-.3C45.54,70.76,45.54,70.76,45,70.64Zm.17.47c0,.11-.07.21-.1.31l-.2-.11.2-.25Zm-2.33,3.43c-.25.36-.54.69-.81,1l-.13-.07a3.69,3.69,0,0,1,.23-.58c.16-.27.34-.53.51-.79a4.73,4.73,0,0,0,.71-2.69c0-.67,0-1.34-.08-2a2.86,2.86,0,0,0-2.11-2.87c-.18-.06-.35-.14-.53-.22a3.45,3.45,0,0,1,3.28,2.84,11.56,11.56,0,0,1,.13,2.2A5.7,5.7,0,0,1,42.86,74.54Zm.4,1.35c0,.41-.07.7-.09,1s0,.54,0,.81H43c0-.52,0-1,0-1.56C43,76.07,43.1,76,43.26,75.89ZM39.45,63.65c-.46-.42-.46-.42-.48-1C39.12,63,39.26,63.25,39.45,63.65ZM39.4,65.6l-.48.36C38.85,65.56,39,65.46,39.4,65.6ZM37.45,78.82l.43-.24c0,.12.07.19,0,.24-.09.22-.25.19-.42.15Zm.11,4.53.25-.19.09.15-.28.13Zm.58,4.52c-.2.13-.36.11-.48-.18l.53-.5C38.33,87.49,38.4,87.7,38.14,87.87Zm0-6.76c-.2-.36-.2-.36.31-.85-.35-.41-.35-.41-.3-.93.59.2.31.9.76,1.18Zm1.54,4L38.93,84c.46,0,.53-.34.7-.63s.48-.78,1.06-.6c-.84.38-.95.54-.78,1.5.11.62.31,1.24.51,2C40.11,85.82,39.89,85.46,39.66,85.11Zm1.46,2-.45.25v-.92c.16.1.34.21.52.3s.4.18.71.31l-.48.45ZM41.61,81c-.07,0-.16-.11-.21-.18s.09-.16.14-.17.18,0,.35.1C41.75,80.87,41.68,81,41.61,81Zm.55,5.47-.52-.29C42,86,42.09,86.08,42.16,86.46ZM42,88.92s-.18,0-.2-.1c-.07-.22.06-.31.45-.36A5.12,5.12,0,0,1,42,88.92ZM44,89c0-.19,0-.38.06-.57a9.91,9.91,0,0,0-.1-4.47,33.9,33.9,0,0,0-3-7.15c-.53-.94-1.12-1.84-1.66-2.76a4.75,4.75,0,0,1-.61-2.66,3.48,3.48,0,0,1,1.86-2.67,4.19,4.19,0,0,1-.25.43,4.51,4.51,0,0,1-.37.39,2.65,2.65,0,0,0-.75,2.94,9.16,9.16,0,0,0,1.69,3.19,10.82,10.82,0,0,1,1.85,3.25c.46,1.24.92,2.48,1.39,3.72a10.31,10.31,0,0,1,.34,5.69,3.83,3.83,0,0,1-.27.71Zm1.18,1.67-.78.2-.14-.14c.07-.13.15-.37.22-.37a4.49,4.49,0,0,1,.71.15A.81.81,0,0,0,45.13,90.69Zm1.28-.59c.53,0,.53,0,.6.56ZM47,87.24a8.09,8.09,0,0,1-.61-.56c-.19-.22-.34-.48-.54-.68a3.12,3.12,0,0,0-.57-.4c0-.09.07-.27.15-.56.33.44.59.79.87,1.14s.54.64.81.95A1.14,1.14,0,0,1,47,87.24Zm.89,2.18.61.55C47.79,89.92,47.79,89.92,47.84,89.42Zm.2-2.58a7.19,7.19,0,0,1,.24.79,1.5,1.5,0,0,1,0,.47h-.15C47.71,87.33,47.7,87.07,48,86.84Zm.72,5.25c-.07-.23-.14-.44-.22-.68C49.16,91.57,49.18,91.65,48.76,92.09Zm1.62-1.64-1.19-.93s.05-.1.07-.14c.21.08.54.12.59.25C50,90,50.6,89.88,50.38,90.45Zm-3-6.49a6.75,6.75,0,0,1-2.1-4.46c0-.11,0-.22,0-.33a3,3,0,0,0-.13-.29c-.47.17-.62-.36-1-.41,0,0,0-.1.05-.15l.93.26a2.07,2.07,0,0,0,.2-1A10.65,10.65,0,0,1,47,72a7,7,0,0,1,2.39-2.37,3.7,3.7,0,0,1-.21.33,2.65,2.65,0,0,1-.33.34c-2,1.75-2.69,4.11-3,6.64-.06.53,0,1.08-.08,1.61a6.6,6.6,0,0,0,1.6,4.8,39.63,39.63,0,0,0,3,3,1.36,1.36,0,0,0,1.38.4v-.65l.11,0c.09.11.17.23.25.34.35,0,.3-.23-.2-1.16.16-.1.43-.17.48-.31.1-.31-.18-.46-.38-.64l-.42.21a1.22,1.22,0,0,0-.15-.42c-.07-.07-.23,0-.36-.08,0-.13.08-.23.14-.37a1.28,1.28,0,0,0-.26,0c-.23,0-.3.46-.67.2a2.62,2.62,0,0,0,.42-.39c.07-.11.13-.34.07-.4s-.31-.08-.42.11-.12.18-.16.24c-.7,0,0-.74-.5-.88l-.37.26c-.26-.14,0-.67.49-1.06-.33-.24-.89,0-1.13-.57a3,3,0,0,0,.61.18,1.61,1.61,0,0,0,.48-.08s0-.09,0-.14l-.44-.24c0-.13.08-.27.12-.44-.08,0-.15,0-.2,0l-.94.35c-.17,0-.17,0-.47-.16a1.91,1.91,0,0,1,1.2-.67c-.08-.42-.35-.84.1-1.19-.11-.24-.57-.48,0-.67l-.32-.42c.14-.41.24-.73.35-1.08l.47,0c-.46-.7-.65-1.66-.18-2,0-.22-.08-.42-.14-.71l-.31-.13.54-.72-.4-.38.27-.21c.63.81.63.81,1.16.65a1.39,1.39,0,0,1-.54-1.18l.45.42c.43-.25.39-.82.7-1.14l1,.34c-.18-.47-.31-.78-.46-1.17.57,0,.46.75,1,.8l.25-.89-.62.09.28-.79c0-.14-.11-.43-.19-.77l-.43.26c0-.21,0-.37.06-.59l-.41.08c-.06-.16-.11-.33-.18-.54l.63-.11-1.29-1,.29-.35-.68-.33.83-.54c.39-.26.79-.51,1.16-.8A3.47,3.47,0,0,0,53.66,63a4,4,0,0,1,.74-1.74,4.72,4.72,0,0,1,.07.49c0,.47,0,1,0,1.41a3.56,3.56,0,0,0,1,2.1,5.1,5.1,0,0,0,4,1.75,19.29,19.29,0,0,0,4-.5,4.24,4.24,0,0,0,2.91-2.07,1.12,1.12,0,0,1,.16-.22l.52.09c-.07-.51.29-.82.5-1.25.14.25.26.51.39.75-.09-.31.4-.53.08-.9l1.12.09.59.5-1,1.39,1.27.52c-.51.31.06.7-.16,1,.4.14.27-.23.43-.35.09.11.17.23.25.35l.27-.17c.13.19,0,.37-.45.53-.24.09-.47.2-.73.31.39.45,1.08.23,1.58-.42.55.3.59.36.73,1a25.53,25.53,0,0,1,3,.52,22.19,22.19,0,0,1,2.71,1.2c.12.25-.13.62.18,1,.24-.47,0-.93.2-1.44.15.23.24.39.35.57l.87-.27a.77.77,0,0,0,0-.15l-.85-.38c.49,0,.49,0,.63-.35l.81.23c-.16-.23-.25-.36-.33-.49.49-.82.49-.82-.42-1.68.53-.13.66.47,1.17.62-.1-.34-.17-.6-.25-.89l.28-.13c-.2-.3-.53-.59-.58-.92s.2-.64.37-1.11l-.84.44-.67-.32c.07-.17.14-.34.21-.53-.75-.11-.5.86-1.14,1l-.28-.62.57-.38a.74.74,0,0,0,.54-.69A4.35,4.35,0,0,1,78.7,62l-.93.13c-.17-.39.11-.47.35-.56-.14-.09-.29-.14-.34-.23a9.59,9.59,0,0,1-.37-.89c-.2.09-.55.12-.61.61l.63.06c-.05.42-.05.42-.69.25a2.08,2.08,0,0,1,0,.25,1.09,1.09,0,0,1-.09.21c-.44-.22-.11-.63-.25-.87s.18-.55.16-.9l-.49.09a.53.53,0,0,1,0-.18c.14-.4.52-.49.86-.7.14.3-.42.67.22.88,0-.31.09-.58.13-.9a2.6,2.6,0,0,1,1.67.18,7.71,7.71,0,0,1,1.42.75,1.52,1.52,0,0,0,1.43.21c.18-.56,0-1.27.64-1.71.25.25.18.57.18.86A7.23,7.23,0,0,0,83,62.13a8.8,8.8,0,0,0,.88,1.73,2.2,2.2,0,0,0,1.49,1A1.6,1.6,0,0,0,87.27,64c.08-.13.14-.27.23-.44l.45,0,.5,0c.08.15.16.3.25.45.74,1.26,1.46,2.52,2.21,3.77A6.33,6.33,0,0,1,92,70.32a6,6,0,0,1-.64,3.37,2.11,2.11,0,0,1,.18-1.52c.25-.64.22-.75-.43-1.23a2.05,2.05,0,0,0-.23.2,1,1,0,0,0-.12.25c-.29-.33-.29-.93-.94-.89,0,.42.44.78.14,1.27-.09-.2-.15-.36-.22-.52,0,0-.09,0-.1.07a15.58,15.58,0,0,1-2.25,4.41c-.43.65-.9,1.28-1.37,1.91a6.36,6.36,0,0,1-4.85,2.89c-.88,0-1.75.14-2.62.19a1.16,1.16,0,0,1-.7-.21l1-.46c1.05-.47,2.08-1,3.13-1.41a15,15,0,0,0,4.49-3.14,2.06,2.06,0,0,0,.46-.73q.39-1,.69-2.1a2.71,2.71,0,0,0-.35-2.2,9.9,9.9,0,0,0-2.61-2.86,2.3,2.3,0,0,0-1.3-.5,1.19,1.19,0,0,0-1.13.64c.06,0,.09.06.1,0a2.1,2.1,0,0,1,2.54.38,8.78,8.78,0,0,1,2.28,2.95,2,2,0,0,1,0,1.76c-.13.31-.16.32-.64.45,0-.23.08-.44.13-.69l-.33-.18.15-.57c-.25-.32-.59-.3-1-.31l.16.5c-.31.13-.41-.52-.79-.14.05.18.1.39.17.66a1.19,1.19,0,0,0-.38,0c-.13,0-.32.11-.35.21s.12.23.29.26c.37,0,.34.26.17.59l-1.52-1.41c0,.32,0,.49-.07.65.31.27.83.33.91.84a4.33,4.33,0,0,0-.65-.32c-.25-.09-.39-.21-.3-.49l-.59.32,1.14.7a.74.74,0,0,1,0,.14,1.53,1.53,0,0,0-1.43.29l-.06-.15c.06-.2.13-.4.2-.6a1.22,1.22,0,0,0-1.21-.13c-.21-.38-.61-.36-1-.4-.11.28-.21.56-.33.89.12.25.49.54,0,.9-.08-.47-.15-.91-.23-1.36-.49-.19-.87.2-1.31.26-.19.75-.5.8-1.29.33,0-.29.24-.29.44-.25s.48-.13.59-.45c-.4-.13-.84,0-1.18-.43,0,.29,0,.45-.07.68l-.51-.39c0,.09-.13.15-.12.18.07.21.16.4.25.62l-.59.25c0-.22-.05-.38-.08-.59l-.45-.08c-.15-.4-.16-1.07-.94-.6,0-.17,0-.31-.07-.48l-.76.06.45-.52-.35-.3c-.22-.2-.41-.4-.27-.75,0-.11,0-.26-.2-.4-.07.19-.13.39-.19.59l-1-.32v-.09l.18,0,.23,0-.12-.52c.3-.05.76.4.91-.27l-.53-.12c0-.47,0-.94,0-1.42a3.51,3.51,0,0,0-.19-.64c-.16.32-.25.48-.36.69l-.47-.37c-.22.53-.82,0-1.15.46l.2-.58c-.34-.15-.57.06-.79.22a6.33,6.33,0,0,0-2.83,5c0,.46,0,.93,0,1.43-.67-.41-.67-.41-.56-1l-.58,0,.22-.7-.84-1,.16-.46-.73-.5c.4-.1.55-.32.39-.73.53.16.12.93.73.92.33-.35-.09-.69,0-1l0,0s0,0,0,0a3.18,3.18,0,0,1-.16-.32c-.21-.65-.63-.85-1.22-.53a.69.69,0,0,1-.61.1c-.2,0-.45.09-.75.17l-.61-.32-.28.3-.41-.26a.68.68,0,0,1-.73.19c-.79-.24-1.6-.4-2.39-.58-.5.34-.9-.14-1.35-.17a2.68,2.68,0,0,0-.4,0l-3.94.28a3.06,3.06,0,0,0,2.24,1.07c0,.49-.29.57-.55.72-2.1,1.26-3.87,2.85-4.44,5.32a7.3,7.3,0,0,0,2.67,8c.65.52,1.34,1,2,1.45-.43.79-2.64,1.72-4.14,1.74,0-.13,0-.26,0-.3C49.65,86,48.51,85,47.42,84ZM49,75.37c-.14.28-.29.18-.53-.06l.51-.24C49,75.21,49,75.3,49,75.37Zm-.55,7.16c0-.17.06-.35.11-.62C48.79,82.22,48.85,82.41,48.41,82.53ZM77.49,62.9,77,62.76a.13.13,0,0,0,0-.06h.75c0,.28.1.54.14.8h0C77.51,63.5,77.65,63.11,77.49,62.9ZM78.21,68c0-.23.07-.46.12-.75l.52-.24L78.31,68Zm.91-2.73c.4.19.36.4.08.7C79,65.69,78.9,65.49,79.12,65.22Zm1.29,8.53.16-.07c0,.19.07.37.1.55l.77-.25c0,.25.06.44.09.69-.32-.06-.68-.06-.86-.44C80.59,74.07,80.5,73.91,80.41,73.75Zm-8.63-4.29c-.17-.18-.06-.3.21-.44,0,.18.05.32.07.46S71.83,69.51,71.78,69.46Zm-2,.28a1,1,0,0,1-.24.28c0-.15-.09-.23-.08-.28s.11-.12.17-.17S69.75,69.7,69.73,69.74Zm-.61,1.86s-.07,0-.07,0,0-.31-.08-.46c.08,0,.2,0,.23,0A.3.3,0,0,1,69.12,71.6ZM51.3,89a.78.78,0,0,1,.11.83C51.16,89.57,51.2,89.35,51.3,89Zm.11,2.11c0-.23-.09-.44-.14-.65.43-.13.43-.13.67.62Zm1.15-1.34a2.66,2.66,0,0,1-.39.07c-.36,0-.46-.16-.34-.51.05-.14.09-.28.12-.39.63-.3,1.24-.64,1.88-.87a6.64,6.64,0,0,1,1.38-.21c0-.07-.05-.22-.11-.42l-.57.26c0-.13,0-.21,0-.24.23-.23.48-.46.77-.73l.15.35c.36,0,.33-.27.33-.51s0-.38.33-.29L56,87.2a.41.41,0,0,0,.51-.34c.22-.61.47-1.2.73-1.86l.48.38c.08-.44.16-.83.25-1.25l.51.08c-.09-.2-.15-.33-.24-.51.43-.23.52-.83,1.07-1a.19.19,0,0,0,.11-.15c0-.64.57-1,.71-1.56s.4-1.09.58-1.65.25-.84.38-1.3c.5.29.67.79,1,1.2s.58.91.91,1.33.7.75,1.09,1.16l-.38.7a13.09,13.09,0,0,1-5,4.8A20.09,20.09,0,0,1,54,89.4C53.52,89.53,53,89.64,52.56,89.75Zm5-11.46s0-.2,0-.39c.33.22.55.58.91.25-.15-.2-.27-.39-.41-.56s-.27-.34-.44-.54c0-.16.08-.37.13-.6.17-.08.38.27.56,0a.44.44,0,0,1,.41-.1c.55.18,1.08.4,1.66.62a15.15,15.15,0,0,1-1.1,3l-.53-.29a1.68,1.68,0,0,0,.17.49c.14.18.15.3,0,.43-.46-.61-.46-.71-.09-1.2a.4.4,0,0,0,.1-.22c0-.24,0-.47,0-.78-.38.17-.29.56-.51.82-.24,0-.55,0-.66.38l-.13-.06c0-.17,0-.34-.07-.54l1-.2C58.08,78.57,57.8,78.44,57.53,78.29ZM57,77.61l.37-.58c.1.29.15.46.25.76Zm-.06,1c.06-.46-.63-.57-.49-1.13C56.75,77.81,57.23,78,56.92,78.6Zm.68-5.19c.38-.38.68-.24.94.52Zm.77,1a.49.49,0,0,1,0,.12l-.34,0a1.1,1.1,0,0,0,0-.18Zm.76-1.28c.65.23.72.4.39.86C59.4,73.71,59.27,73.44,59.13,73.13Zm4.62,5c-.36,0-.36,0-.64-.88l.84-.14c0,.33,0,.33-.47.42ZM52.94,91.84a3.8,3.8,0,0,1-.22-.35c.31-.22.17-.84.83-.9C53.32,91.05,53.15,91.4,52.94,91.84ZM55,93.09c-.22-.38-.08-.52.19-.61Zm.58-1,.7-.18c0,.07,0,.13,0,.19C56.15,92.36,55.94,92.42,55.58,92.07Zm2.05.8c-.16-.57-.1-.7.54-1.08.06.11.11.22.21.39C57.77,92.05,58,92.65,57.63,92.87Zm.4.44c-.08-.51.38-.54.78-.68l-.27-.53c.17-.15.36-.43.59-.49a7.1,7.1,0,0,1,1.46-.17c.07,0,.16.16.32.34-.87,0-.79.64-1,1.11C59.18,92.6,58.68,93.19,58,93.31Zm1.88.72c-.13-.28,0-.47.29-.58.1.23.21.45.32.68C60.25,94.25,60,94.29,59.91,94Zm1.3-2c-.12.3-.12.3-.52.45C60.67,92.07,61,92.17,61.21,92.06Zm-.46,1.1c.45-.2.45-.2.59.23Zm1.17.47,0-.13.37-.09,0,.19Zm.54-1,.74.16C62.84,93.09,62.84,93.09,62.46,92.64Zm1.07.34c.38-.37.49-.35.65.25Zm6,1.44a.7.7,0,0,1-.25,0c-.06,0-.08-.12-.12-.18l.06-.08.33.17A.29.29,0,0,0,69.54,94.42ZM86.43,90c.1.67.1.7-.46,1-.23.14-.48.25-.74.39-.11-.15-.21-.29-.3-.43-.6,0-.3.52-.38.82-.49-.14,0-.9-.76-.88l-.36.41-1,.18-.58-.26c0-.21-.1-.42-.16-.69l-.54.21.17.43-.52.12c0,.18,0,.34,0,.48l-.08.07a10.16,10.16,0,0,0-1.15-1.32c-.24.12-.2.27-.07.46a2.37,2.37,0,0,1,.41.67c.15.51.13.66-.39.82L79.41,92l-.12-.06-.51.35-.56-.37c-.06.15-.13.29-.18.43l-1.26.62,0-.07c.2-.26.41-.52.6-.8,0-.07,0-.21-.06-.3-.3-.09-.39.13-.48.29-.28.49-.8.44-1.24.55-.09,0-.22-.12-.32-.19l-.45-.31c-.11.49-.21.88-.31,1.26-.37,0-.31-.21-.27-.42s0-.39,0-.62l-1.11-.18a1,1,0,0,0-.08.11c.18.19.36.39.52.58l-.47.8-.74-.32c0-.28,0-.58,0-.9-.36-.21-.36-.21-.74,0l.27.32-1,.76.48-1-1-.39c-.12.25-.26.51-.4.77.2.28.45,0,.67.05,0,.39,0,.39-.81.33-.09-.3-.18-.6-.29-.94-.42.17-.25.41-.22.63s0,.43.06.7L69,93.53c0-.49,0-.49-.31-.68-.2.25.09.78-.48.85.08-.42.15-.83.23-1.24-.46-.17-.47-.15-.62.86-.46,0-1-.57-1.38.14l-.55-.4-.25.59-1.09-.11c0-.2.07-.41.11-.66l.74.51a2.63,2.63,0,0,0-.06-.82c-.11-.25-.39-.18-.6-.11s-.5,0-.66-.31l-.59.37c-.36-.29-.73-.64-1.27-.47-.06.28-.12.54-.19.79,0,0-.13,0-.26,0a1.54,1.54,0,0,0-.15-1.3l-.53.11c0-.08,0-.13,0-.15.2-.33.46-.27.75-.14a3.8,3.8,0,0,0,1.13.39c.33,0,.45.19.61.54.2-.51.37-.92.53-1.32,0,0,0,0,0,0h0a.22.22,0,0,1-.11,0,3.46,3.46,0,0,0-.74-.22,3,3,0,0,0-.73.07c-.18-.28,0-.36.22-.38l1.83-.1c0,.1,0,.26.07.51l-.56-.25c0,.15,0,.25,0,.36h0v0c.15.27.33.49.68.35s.72-.29.63-.82a1.6,1.6,0,0,0,.46-.06.43.43,0,0,0,.19-.31c0-.06-.12-.16-.21-.21s-.35-.15-.53-.23l-.3.23a2,2,0,0,0-.26-.35,3.79,3.79,0,0,0-.46-.24c.18-.18.33-.31.46-.46s.33-.41.49-.62.37-.5.56-.74c.36-.46.74-.9,1.09-1.37a.89.89,0,0,0,.18-.61c-.1.11-.2.22-.29.34a14.82,14.82,0,0,1-4.27,3.85,10,10,0,0,1-5.67,1.61c-.66,0-1.33,0-1.95,0-.19-.33.3-.56-.08-.84-.24.27-.31.81-.91.56l.46-.29c-.11-.16-.22-.29-.34-.46.47-.31.89,0,1.35.14l.27-.78c.08.3.14.53.21.82.15-.06.29-.16.41-.15s.23.13.35.21c.12-.46.12-.46-.38-.91.27-.13.27-.13,1.07,0l.56-.75.19.63c.49-.18.31-.55.31-.93l.42.47a1.54,1.54,0,0,1,.92-.83c.18-.07.29-.31.47-.51.31.15.58,0,.84-.25s.75-.64,1.15-1l-.46-.35.81-.08c.24-.46.76-.86.48-1.55l.45-.11,1-2c.32.27.57.45.79.67a10.44,10.44,0,0,0,6.87,2.82A42,42,0,0,0,78.3,86a18.41,18.41,0,0,0,5.17-.74.56.56,0,0,1,.71.19A9.63,9.63,0,0,1,86.43,90ZM63.28,90l.59-.39C63.83,90.09,63.83,90.09,63.28,90Zm1.17-11.42-.36-.34.17-.19a3.64,3.64,0,0,1,.34.34A.67.67,0,0,1,64.45,78.57Zm.26,1.21-.16.16-.24-.26.16-.15Zm.62.41c0-.55,0-.55.56-.57Zm.62.16a.87.87,0,0,1,.49.76l-.73-.51Zm1.62.56.15-.12.39.47C67.7,81.36,67.53,81.24,67.57,80.91Zm1.54,2.19c.12,0,.21-.11.23-.09a3.76,3.76,0,0,1,.25.31l-.16.14Zm4.53.36-.57-.27.57-.47Zm.34.22c0,.19,0,.34,0,.58l-.84-.32a.94.94,0,0,1,0-.16,2.07,2.07,0,0,0,.35,0A4.09,4.09,0,0,0,74,83.68Zm3.24-.36c.38.2.44.37.25.79C77.27,83.87,77.08,83.66,77.22,83.32Zm.65.05.94.12c-.12.33-.38.34-.64.31A.31.31,0,0,1,77.87,83.37Zm1.37,0,.14,0c0,.14,0,.28,0,.48C79,83.65,79.15,83.5,79.24,83.34ZM84,81.5l.13.09c-.09.17-.18.35-.32.6A.48.48,0,0,1,84,81.5Zm7,3.68a8.67,8.67,0,0,1-.22,3.92,3,3,0,0,1-1.36,1.79c.08-.32.14-.53.19-.74.1-.41.23-.82.3-1.23a4.77,4.77,0,0,0-.17-2.51,13.28,13.28,0,0,0-1.93-3.74,1.24,1.24,0,0,1-.14-1.53c.28-.49.47-1,.71-1.52a5.84,5.84,0,0,1,.3-.53c.08.09.14.13.16.19A27.64,27.64,0,0,1,91,85.18Zm-2.71-7.37c-.47,1.23-1,2.45-1.49,3.67a5.88,5.88,0,0,1-1.45,2c-.5.46-.62.45-1.22,0l.35-.19-.62-.72c.35-.29.73-.57.58-1s-.42-.48-.7-.77c-.23.45-.47.75-1.07.63l.43.47-.37.46c-.35-.2-.66-.53-1.16-.36v.78a12.79,12.79,0,0,1-3.08.37c-.09-.18-.15-.32-.21-.45a2.25,2.25,0,0,1-.63.14,2.46,2.46,0,0,1-.61-.21c-.11.28-.21.51-.34.83l-.4-.59c-.47.13-1-.43-1.49.21l.55.42c-.06.16-.12.34-.18.55.1,0,.19,0,.21,0,.2-.25.39-.51.58-.77a.62.62,0,0,1-.25.87c-.47.39-.71.39-1.28,0l.47-.59-.62-.2c0-.1.07-.18.08-.21l-.69-.73-.46.16h0a2.33,2.33,0,0,1-1.43.63c.26-.41,0-.67-.19-1,0-.08-.19-.1-.43-.21l.29.64-.36.13.22.32c-.42-.08-.6.66-1.14.21l.46-.3L70,82.88c.09-.26.17-.53.27-.86l-.82-.26h0c.06.17.12.34.18.48l-1.22.1,0-.12c.36-.16.71-.32,1.07-.46,0,0,0,0,0,0h0c.26-.11.2-.29.1-.54l-.46.25L68.84,81l-.26.74c-.38-.11-.37-.31-.18-.55s.32-.33.52-.54c-.77,0-.77,0-1.17-.78l-.41.46c-.23-.17-.48-.35-.71-.54s-.53-.38-.4-.81l-.21.2-.26.06c-.32.12-.5,0-.59-.33a3.34,3.34,0,0,0-.18-.5c.34-.09.41.16.49.34a.65.65,0,0,0,.54.43c-.12-.31-.23-.62-.36-1a3,3,0,0,1-.53-.18c-.34-.18-.74-.28-.76-.82,0-.18-.28-.36-.46-.53a2.14,2.14,0,0,1-.48-.51l.72.09c-.1-.53-.58-.44-.87-.67a4.82,4.82,0,0,0-.18-.8,2.4,2.4,0,0,0-.47-.88,2.08,2.08,0,0,1-.8-1.31l-.43.28-1.23-.16c.12-.55-.68-.34-.64-1-.25.28-.37.39-.51.55-.1,0-.23,0-.36,0a.66.66,0,0,0-.69.29c-.3.4-.44.35-.64-.15a.34.34,0,0,0-.07-.11c-.51-.1-.44.35-.59.74l-.26-.76c-.24.09-.49.18-.72.28a1.28,1.28,0,0,0-.29.23l.3.27.2.11-.51.32c0,.18.1.36.14.54h0c.22-.27.45-.55.68-.85.32.38-.12.55-.17.83l.17.45-.09.09L55.55,74s0,0,0,0,0,0,0,0a.94.94,0,0,0-1,.12l.39.55-.43.1c0,.16.06.35.1.59l.38-.21c.59.24,0,.68.28,1l-.13.08L54,75.52c-.17.09-.23.23,0,.36a.8.8,0,0,1,.48.65l-.61-.19c-.06.56-.06.56.48.81l.79-.51a.83.83,0,0,0,.08.12c-.43.14-.53.82-1.21.61.07.22.12.4.17.58h.36c0,.16,0,.31-.09.57l.44-.28c.15.38.15.38-.2.64,0,.14.09.28.13.42a1.5,1.5,0,0,1-.11.5,3.34,3.34,0,0,0-.08.47l.68-.46c.17.35-.68.48-.08.85l.52-.33-.17.67c.23.17.46.32.67.5s.35.28.67-.1l1.54.6a11.14,11.14,0,0,1-2.41,2.77.55.55,0,0,1-.43.1,2.75,2.75,0,0,1-1.54-1.11A.61.61,0,0,1,54,83c.07-.11-.16-.4-.31-.73l-.44.56c-.55-.1,0-.56-.26-.75-.84,0-1,0-1.3-.87a2.65,2.65,0,0,0-.27-.53c-.23-.34-.37-.67-.16-.92-.16-.52-.3-.94-.47-1.46l.61.22c-.22-.48-.39-.87-.57-1.29a1.3,1.3,0,0,0,.45-.95,5.53,5.53,0,0,1,1.17-2.87,11,11,0,0,1,3.39-2.53l.36.25a2,2,0,0,1,1.34-.4,10,10,0,0,1,4.79,1.15,6.79,6.79,0,0,1,2.27,2c.73.94,1.47,1.88,2.14,2.85a9.08,9.08,0,0,0,4.62,3.41,22.86,22.86,0,0,0,8.59,1.29,7.19,7.19,0,0,0,5-2.1,31,31,0,0,0,4.3-5.25A16.19,16.19,0,0,0,90,72.49a1.18,1.18,0,0,1-.1,1C89.4,74.91,88.88,76.36,88.32,77.81ZM55.6,75.53c0-.26.06-.46.09-.74C56.09,75.12,56.08,75.23,55.6,75.53Z"/><path class="cls-2" d="M70.15,41.76l.85.14c0,.2-.06.39-.33.37S70.12,42.22,70.15,41.76Z"/><path class="cls-2" d="M59.18,36.14a4.12,4.12,0,0,1,.49.08s0,.15,0,.17S59.35,36.52,59.18,36.14Z"/><path class="cls-2" d="M71.05,43.05c-.17.08-.27.16-.35.15s-.15-.11-.22-.18.16-.16.24-.16S70.89,43,71.05,43.05Z"/><path class="cls-2" d="M69.81,41.49c0,.24-.15.37-.37.3a.18.18,0,0,1-.08-.16C69.42,41.39,69.58,41.38,69.81,41.49Z"/><path class="cls-2" d="M57.69,36.13a1.7,1.7,0,0,1,.2.29s-.12.13-.18.12-.13-.1-.15-.16S57.62,36.25,57.69,36.13Z"/><path class="cls-2" d="M65.8,70.28l0-.68L65.41,69l1-.44.26.54-.6,0c.06.37.49.6.21,1-.15.2-.31.11-.47.14Z"/><path class="cls-2" d="M84.76,71.09l.57,0a1,1,0,0,0,0-.18c-.08-.23-.35-.42-.1-.77a1.72,1.72,0,0,1,.64,1C85,71.43,85,71.43,84.76,71.09Z"/><path class="cls-2" d="M82.32,62.57c-.09-.14-.16-.29-.26-.42-.4-.52-.33-.69.46-.83,0,.25-.07.47-.1.69S82.69,62.43,82.32,62.57Z"/><path class="cls-2" d="M83.2,64.7c0-.39-.45-.64-.16-1C83.78,64.11,83.83,64.35,83.2,64.7Z"/><path class="cls-2" d="M84.09,65.72l-.51-.78c.34-.3.36-.29.93.47Z"/><path class="cls-2" d="M74.09,72.06c.35-.34.55-.12.71,0s.11.33.17.52C74.38,72.71,74.48,72.09,74.09,72.06Z"/><path class="cls-2" d="M90,69.23c-.24.33-.07.56.19.76l-.08.12-.94-.23Z"/><path class="cls-2" d="M81.17,60.67l.94.14-.6.7Z"/><path class="cls-2" d="M82.71,63.51a6.48,6.48,0,0,1-.16-.63.31.31,0,0,1,.13-.24s.17,0,.22.07C83.14,63,83.09,63.23,82.71,63.51Z"/><path class="cls-2" d="M75.17,72.59c.51-.35.52-.35.9.09C75.76,72.89,75.5,72.78,75.17,72.59Z"/><path class="cls-2" d="M72.82,68l.75.58-.8.14Z"/><path class="cls-2" d="M78.49,72.22l.4-.3c.07.1.21.22.19.3C79,72.55,78.77,72.42,78.49,72.22Z"/><path class="cls-2" d="M73.27,69.66c-.48-.39-.2-.55-.12-.74l.19,0Z"/><path class="cls-2" d="M69.6,66.38c-.35.23-.35.23-.45-.14Z"/><path class="cls-2" d="M67,69c-.21-.23-.39-.46,0-.75Z"/><path class="cls-2" d="M75.68,69.76c-.2-.3-.13-.45.15-.55C76,69.45,76,69.61,75.68,69.76Z"/><path class="cls-2" d="M81.92,72.91c-.19.25-.34.23-.49.11a.17.17,0,0,1,0-.18C81.59,72.68,81.73,72.77,81.92,72.91Z"/><path class="cls-2" d="M84.78,71.65c-.13.08-.22.19-.29.18s-.13-.13-.2-.2.13-.16.18-.15S84.64,71.57,84.78,71.65Z"/><path class="cls-2" d="M68.43,64.21l.43-.52c0,.42-.07.56-.3.64Z"/><path class="cls-2" d="M79.42,70.43c-.23.15-.33.24-.36.22a.4.4,0,0,1-.18-.22s.12-.14.18-.14A1.06,1.06,0,0,1,79.42,70.43Z"/><path class="cls-2" d="M77.5,72.79a1,1,0,0,1,.23,0,.77.77,0,0,1,.24.12c0,.08-.08.18-.11.18a2.79,2.79,0,0,1-.39-.1Z"/><path class="cls-2" d="M89,68.38c-.12.1-.18.19-.25.19s-.11-.1-.16-.16.11-.14.18-.16S88.88,68.32,89,68.38Z"/><path class="cls-2" d="M80.13,68.06c-.11.07-.18.14-.24.14s-.11-.1-.17-.15.11-.15.18-.16S80,68,80.13,68.06Z"/><path class="cls-2" d="M80.16,65a1.46,1.46,0,0,1,.14.28.39.39,0,0,1-.14.08,1.19,1.19,0,0,1-.16-.23S80.08,65,80.16,65Z"/><path class="cls-2" d="M79,73.22c0-.07-.12-.15-.1-.19a.27.27,0,0,1,.2-.12s.11.1.11.16a.82.82,0,0,1-.06.25Z"/><path class="cls-2" d="M81.06,66.2a.41.41,0,0,1,0,.18.62.62,0,0,1-.1.2c-.05,0-.13-.06-.14-.1a.83.83,0,0,1,.06-.21Z"/><path class="cls-2" d="M83.43,90.87l-.56.23C82.93,90.72,83.13,90.69,83.43,90.87Z"/><path class="cls-2" d="M82.1,90.32l.52,0C82.46,90.61,82.31,90.63,82.1,90.32Z"/><path class="cls-2" d="M73.55,91.93c-.31-.1-.27-.25-.11-.46C73.69,91.59,73.65,91.74,73.55,91.93Z"/><path class="cls-2" d="M78.84,91.37l-.26.14-.07-.16.28-.09Z"/><path class="cls-2" d="M73.25,82.61l-.1-.49a1.5,1.5,0,0,1-.37-.05,1.13,1.13,0,0,1-.25-.24c.09-.08.17-.21.27-.24.42-.1.58.22.74.51-.1.18-.2.34-.29.51Z"/><path class="cls-2" d="M61.32,71.94a1.07,1.07,0,0,1,0,.44c0,.11-.2.17-.31.25-.05-.13-.18-.28-.15-.38s.21-.27.32-.41Z"/><path class="cls-2" d="M75.48,82.16l-.3.52C74.89,82.27,74.91,82.23,75.48,82.16Z"/><path class="cls-2" d="M80.35,82.68a.79.79,0,0,1-1-.14C79.76,82.54,80.06,82.34,80.35,82.68Z"/><path class="cls-2" d="M84.43,82.86c-.16-.34,0-.4.24-.47C84.85,82.69,84.67,82.77,84.43,82.86Z"/><path class="cls-2" d="M63.38,74.53c-.08-.49-.08-.49.34-.41Z"/><path class="cls-2" d="M81.2,82.51c-.1.07-.19.16-.22.14s-.15-.12-.22-.19.14-.18.21-.18S81.1,82.41,81.2,82.51Z"/><path class="cls-2" d="M78.84,82.2a.92.92,0,0,1,.22-.18c.06,0,.14.06.32.14l-.46.18Z"/><path class="cls-2" d="M84.56,81.27l-.45-.63C84.56,80.84,84.56,80.84,84.56,81.27Z"/><path class="cls-2" d="M64,75.25a1.23,1.23,0,0,1-.3.17s-.12-.13-.11-.18.11-.13.17-.14S63.85,75.17,64,75.25Z"/><path class="cls-2" d="M76,82.07a1.59,1.59,0,0,1,.12.35s-.06.1-.09.14a.67.67,0,0,1-.19-.14S75.84,82.32,76,82.07Z"/><path class="cls-2" d="M64.44,75.44l-.33.22-.1-.12.3-.26Z"/><path class="cls-2" d="M62.14,73.26c.09-.06.14-.12.21-.13s.09.05.14.08a.61.61,0,0,1-.16.16S62.23,73.32,62.14,73.26Z"/><path class="cls-2" d="M69.72,50.18c-1.17,1.75-.58,3.66,1.43,4.85a1.16,1.16,0,0,1,0-1.32,1.07,1.07,0,0,0,.07-.19A2.91,2.91,0,0,0,69.72,50.18Zm.75,3.88c-.19-.14-.3-.25-.11-.52a.9.9,0,0,0-.15-1.4l-.31-.26c-.43-.41-.44-.58,0-1.17A2.05,2.05,0,0,1,70.47,54.06Z"/><path class="cls-2" d="M78,49.66a1.1,1.1,0,0,0-1-.2l.77.42a.78.78,0,0,1,0,.14,1.18,1.18,0,0,1,0,.2,2.31,2.31,0,0,0,.54,2.7,1.36,1.36,0,0,1,.25.67,3.52,3.52,0,0,1,0,.65l.2,0a16.5,16.5,0,0,0,.61-1.66A2.34,2.34,0,0,0,78,49.66Zm.91,2.85a.24.24,0,0,1-.23,0,2.12,2.12,0,0,1-.72-2,2.08,2.08,0,0,1,.25-.31c.11.17.25.3.24.4a2,2,0,0,0,.49,1.41.44.44,0,0,1,.09.24A.27.27,0,0,1,78.87,52.51Z"/><path class="cls-2" d="M66.38,60.64c.5-.1.53-.06.38.53-.15-.21-.26-.38-.38-.54Z"/><path class="cls-2" d="M57.18,65.23c-.14-.27-.23-.47-.34-.66a2.7,2.7,0,0,1,.56-3.37,2.42,2.42,0,0,1,3.08-.31,2.64,2.64,0,0,1,1.28,3,2.6,2.6,0,0,1-2.57,1.82l.41-1-.89.06c-.32,0-.32,0-.49-.44l1.47-.23c-.37-.32-.7,0-.9-.17-.38-.24-.47.25-.82.22a3.65,3.65,0,0,1-.41-2.07,2.62,2.62,0,0,0-.29.45,2,2,0,0,0,.18,1.62c.15.28.27.59.44,1Z"/><path class="cls-2" d="M63.09,61.25,62.15,61l0-.7C63.15,60.41,63.36,60.6,63.09,61.25Z"/><path class="cls-2" d="M62.21,62.05l.42-.65C62.85,62,62.79,62.06,62.21,62.05Z"/><path class="cls-2" d="M62.74,64.85l-.53,0C62.35,64.44,62.35,64.44,62.74,64.85Z"/><path class="cls-2" d="M62.48,62.57c.12-.11.18-.2.26-.23s.17.11.16.14a.39.39,0,0,1-.17.21S62.6,62.63,62.48,62.57Z"/><path class="cls-2" d="M62.53,60c-.08-.09-.18-.15-.17-.2a.22.22,0,0,1,.14-.16s.16.07.16.12S62.6,59.93,62.53,60Z"/><path class="cls-2" d="M63.13,63.7c-.13,0-.22.09-.27.07s-.09-.11-.14-.17.14-.1.2-.09S63,63.6,63.13,63.7Z"/><path class="cls-2" d="M78.32,45l.79.51-.14.4a.89.89,0,0,1,.29.08,1.16,1.16,0,0,1,.23.26c-.1.06-.2.16-.31.17-.4,0-.58-.26-.79-.53A.66.66,0,0,1,78.32,45Z"/><path class="cls-2" d="M80.08,47.15c.24.12.49.24.29.62A.6.6,0,0,1,80.08,47.15Z"/><path class="cls-2" d="M77.38,44.38h.71v.14l-.72.07Z"/><path class="cls-2" d="M85.23,56l.12.14c.1.11.28.24.26.32s-.2.23-.32.36a.73.73,0,0,1-.06-.83Z"/></g></g></svg>